<svg width="34" height="118" viewBox="0 0 34 118" fill="none" xmlns="http://www.w3.org/2000/svg">
<rect x="0.202599" y="0.28958" width="100.967" height="100.967" rx="18.775" transform="matrix(0.984808 0.173648 -0.174411 0.984673 17.7505 -0.0307426)" fill="#D9B6FF"/>
<rect x="0.202599" y="0.28958" width="100.967" height="100.967" rx="18.775" transform="matrix(0.984808 0.173648 -0.174411 0.984673 17.7505 -0.0307426)" stroke="#202027" stroke-width="0.5"/>
<mask id="path-2-outside-1_18933_333" maskUnits="userSpaceOnUse" x="29.8358" y="38.9014" width="56.7911" height="40.5392" fill="black">
<rect fill="white" x="29.8358" y="38.9014" width="56.7911" height="40.5392"/>
<path d="M49.943 54.6162C52.1764 55.5045 53.7785 56.7762 54.7494 58.431C55.7517 60.0639 56.0735 61.8928 55.7148 63.9177C55.4222 65.5696 54.6979 67.0217 53.5418 68.274C52.4123 69.531 50.8504 70.437 48.8561 70.9921C46.8931 71.5251 44.5659 71.5544 41.8746 71.0799C39.9028 70.7322 37.9867 70.147 36.1264 69.3245C34.2928 68.5066 32.7477 67.5335 31.4912 66.4053L35.4238 60.958C36.3841 61.8967 37.5084 62.6856 38.7966 63.3249C40.1115 63.9689 41.4351 64.4083 42.7674 64.6432C44.1264 64.8829 45.2504 64.82 46.1395 64.4548C47.0285 64.0895 47.5556 63.4406 47.7208 62.5081C48.0417 60.6964 46.7766 59.5392 43.9254 59.0364L40.6079 58.4515L41.4927 53.4559L47.4446 48.9416L36.4129 46.9964L37.4959 40.8819L57.7208 44.448L56.843 49.4037L49.943 54.6162ZM74.1707 57.8166C75.9293 58.1268 77.4754 58.784 78.8088 59.7884C80.147 60.7662 81.1221 62.0097 81.7341 63.5188C82.3775 65.006 82.5458 66.6155 82.239 68.3473C81.904 70.239 81.1137 71.8306 79.8682 73.1221C78.6541 74.3917 77.1369 75.2781 75.3166 75.7814C73.5276 76.2627 71.6072 76.3225 69.5554 75.9607C65.5584 75.256 62.6108 73.5136 60.7125 70.7336C58.8143 67.9536 58.2592 64.3389 59.0473 59.8895C59.6136 56.6923 60.7126 54.0561 62.3442 51.981C64.0071 49.8838 66.0639 48.4332 68.5146 47.6289C70.9653 46.8246 73.6696 46.6833 76.6273 47.2048C78.2261 47.4867 79.7143 47.9277 81.0919 48.5278C82.4695 49.1279 83.6056 49.8502 84.5002 50.6948L80.6171 55.8624C79.428 54.6636 77.7943 53.881 75.7158 53.5145C73.6907 53.1574 71.9528 53.4279 70.5022 54.3261C69.0516 55.2243 68.0466 56.7093 67.4873 58.7813C69.3315 57.6777 71.5593 57.3562 74.1707 57.8166ZM70.0739 70.2412C71.1931 70.4385 72.1557 70.2785 72.9618 69.7613C73.7945 69.2487 74.3076 68.4462 74.5011 67.3538C74.6898 66.2881 74.4811 65.3721 73.8749 64.6058C73.2954 63.8442 72.4327 63.3624 71.2869 63.1604C70.1411 62.9583 69.1494 63.1269 68.312 63.6661C67.4793 64.1787 66.9685 64.9679 66.7798 66.0336C66.5957 67.0727 66.7911 67.9863 67.366 68.7746C67.9722 69.5409 68.8748 70.0297 70.0739 70.2412Z"/>
</mask>
<path d="M49.943 54.6162C52.1764 55.5045 53.7785 56.7762 54.7494 58.431C55.7517 60.0639 56.0735 61.8928 55.7148 63.9177C55.4222 65.5696 54.6979 67.0217 53.5418 68.274C52.4123 69.531 50.8504 70.437 48.8561 70.9921C46.8931 71.5251 44.5659 71.5544 41.8746 71.0799C39.9028 70.7322 37.9867 70.147 36.1264 69.3245C34.2928 68.5066 32.7477 67.5335 31.4912 66.4053L35.4238 60.958C36.3841 61.8967 37.5084 62.6856 38.7966 63.3249C40.1115 63.9689 41.4351 64.4083 42.7674 64.6432C44.1264 64.8829 45.2504 64.82 46.1395 64.4548C47.0285 64.0895 47.5556 63.4406 47.7208 62.5081C48.0417 60.6964 46.7766 59.5392 43.9254 59.0364L40.6079 58.4515L41.4927 53.4559L47.4446 48.9416L36.4129 46.9964L37.4959 40.8819L57.7208 44.448L56.843 49.4037L49.943 54.6162ZM74.1707 57.8166C75.9293 58.1268 77.4754 58.784 78.8088 59.7884C80.147 60.7662 81.1221 62.0097 81.7341 63.5188C82.3775 65.006 82.5458 66.6155 82.239 68.3473C81.904 70.239 81.1137 71.8306 79.8682 73.1221C78.6541 74.3917 77.1369 75.2781 75.3166 75.7814C73.5276 76.2627 71.6072 76.3225 69.5554 75.9607C65.5584 75.256 62.6108 73.5136 60.7125 70.7336C58.8143 67.9536 58.2592 64.3389 59.0473 59.8895C59.6136 56.6923 60.7126 54.0561 62.3442 51.981C64.0071 49.8838 66.0639 48.4332 68.5146 47.6289C70.9653 46.8246 73.6696 46.6833 76.6273 47.2048C78.2261 47.4867 79.7143 47.9277 81.0919 48.5278C82.4695 49.1279 83.6056 49.8502 84.5002 50.6948L80.6171 55.8624C79.428 54.6636 77.7943 53.881 75.7158 53.5145C73.6907 53.1574 71.9528 53.4279 70.5022 54.3261C69.0516 55.2243 68.0466 56.7093 67.4873 58.7813C69.3315 57.6777 71.5593 57.3562 74.1707 57.8166ZM70.0739 70.2412C71.1931 70.4385 72.1557 70.2785 72.9618 69.7613C73.7945 69.2487 74.3076 68.4462 74.5011 67.3538C74.6898 66.2881 74.4811 65.3721 73.8749 64.6058C73.2954 63.8442 72.4327 63.3624 71.2869 63.1604C70.1411 62.9583 69.1494 63.1269 68.312 63.6661C67.4793 64.1787 66.9685 64.9679 66.7798 66.0336C66.5957 67.0727 66.7911 67.9863 67.366 68.7746C67.9722 69.5409 68.8748 70.0297 70.0739 70.2412Z" fill="white"/>
<path d="M49.943 54.6162L49.5609 54.1104L48.6622 54.7893L49.7082 55.2054L49.943 54.6162ZM54.7494 58.431L54.2021 58.7522L54.2087 58.7629L54.7494 58.431ZM53.5418 68.274L53.0758 67.8441L53.0701 67.8505L53.5418 68.274ZM48.8561 70.9921L49.0219 71.604L49.0258 71.6029L48.8561 70.9921ZM36.1264 69.3245L35.8677 69.9036L35.8695 69.9044L36.1264 69.3245ZM31.4912 66.4053L30.977 66.0345L30.6433 66.4966L31.0672 66.8772L31.4912 66.4053ZM35.4238 60.958L35.8673 60.5045L35.3408 59.9898L34.9096 60.5872L35.4238 60.958ZM38.7966 63.3249L38.5143 63.8929L38.5173 63.8944L38.7966 63.3249ZM46.1395 64.4548L46.3802 65.0412L46.3802 65.0412L46.1395 64.4548ZM40.6079 58.4515L39.9833 58.3413L39.8727 58.9658L40.4973 59.0759L40.6079 58.4515ZM41.4927 53.4559L41.1096 52.9508L40.9115 53.1011L40.8682 53.3458L41.4927 53.4559ZM47.4446 48.9416L47.8277 49.4467L48.9846 48.5692L47.5552 48.3172L47.4446 48.9416ZM36.4129 46.9964L35.7883 46.8863L35.6777 47.5108L36.3023 47.6209L36.4129 46.9964ZM37.4959 40.8819L37.6065 40.2574L36.982 40.1473L36.8714 40.7717L37.4959 40.8819ZM57.7208 44.448L58.3453 44.5582L58.4559 43.9337L57.8314 43.8236L57.7208 44.448ZM56.843 49.4037L57.2251 49.9094L57.4241 49.7592L57.4675 49.5138L56.843 49.4037ZM49.7082 55.2054C51.8442 56.055 53.3191 57.2468 54.2023 58.7521L55.2965 58.1099C54.2379 56.3055 52.5086 54.9541 50.1779 54.027L49.7082 55.2054ZM54.2087 58.7629C55.1237 60.2536 55.4241 61.9233 55.0903 63.8076L56.3394 64.0278C56.7229 61.8623 56.3796 59.8742 55.2901 58.0991L54.2087 58.7629ZM55.0903 63.8076C54.8192 65.3379 54.1509 66.6796 53.0759 67.8441L54.0077 68.7039C55.2449 67.3638 56.0253 65.8012 56.3394 64.0278L55.0903 63.8076ZM53.0701 67.8505C52.0379 68.9992 50.5906 69.8513 48.6864 70.3812L49.0258 71.6029C51.1102 71.0228 52.7868 70.0628 54.0135 68.6975L53.0701 67.8505ZM48.6902 70.3802C46.8428 70.8819 44.6146 70.919 41.9852 70.4554L41.764 71.7043C44.5172 72.1898 46.9434 72.1684 49.0219 71.604L48.6902 70.3802ZM41.9852 70.4554C40.0646 70.1168 38.1976 69.5468 36.3833 68.7445L35.8695 69.9044C37.7758 70.7473 39.741 71.3476 41.764 71.7043L41.9852 70.4554ZM36.3852 68.7454C34.6009 67.9495 33.1143 67.0101 31.9152 65.9334L31.0672 66.8772C32.3811 68.057 33.9848 69.0637 35.8677 69.9036L36.3852 68.7454ZM32.0054 66.7761L35.938 61.3289L34.9096 60.5872L30.977 66.0345L32.0054 66.7761ZM34.9802 61.4116C35.9913 62.3997 37.1709 63.2262 38.5143 63.8929L39.079 62.7569C37.846 62.145 36.777 61.3936 35.8673 60.5045L34.9802 61.4116ZM38.5173 63.8944C39.8811 64.5623 41.2613 65.0216 42.6568 65.2677L42.878 64.0188C41.6088 63.795 40.3418 63.3754 39.076 62.7554L38.5173 63.8944ZM42.6568 65.2677C44.0851 65.5195 45.3415 65.468 46.3802 65.0412L45.8987 63.8683C45.1593 64.1721 44.1676 64.2462 42.878 64.0188L42.6568 65.2677ZM46.3802 65.0412C47.4668 64.5948 48.1416 63.7685 48.3454 62.6182L47.0963 62.398C46.9697 63.1128 46.5903 63.5842 45.8987 63.8683L46.3802 65.0412ZM48.3454 62.6182C48.5403 61.5174 48.247 60.5508 47.441 59.8134C46.6775 59.1151 45.5076 58.6715 44.036 58.412L43.8148 59.6609C45.1943 59.9041 46.0827 60.2905 46.5843 60.7494C47.0434 61.1693 47.2222 61.6871 47.0963 62.398L48.3454 62.6182ZM44.036 58.412L40.7185 57.827L40.4973 59.0759L43.8148 59.6609L44.036 58.412ZM41.2324 58.5616L42.1172 53.566L40.8682 53.3458L39.9833 58.3413L41.2324 58.5616ZM41.8758 53.9609L47.8277 49.4467L47.0615 48.4366L41.1096 52.9508L41.8758 53.9609ZM47.5552 48.3172L36.5235 46.372L36.3023 47.6209L47.334 49.5661L47.5552 48.3172ZM37.0374 47.1066L38.1204 40.992L36.8714 40.7717L35.7883 46.8863L37.0374 47.1066ZM37.3853 41.5063L57.6102 45.0725L57.8314 43.8236L37.6065 40.2574L37.3853 41.5063ZM57.0962 44.3379L56.2185 49.2935L57.4675 49.5138L58.3453 44.5582L57.0962 44.3379ZM56.4609 48.8979L49.5609 54.1104L50.3252 55.122L57.2251 49.9094L56.4609 48.8979ZM78.8088 59.7884L78.4269 60.295L78.4343 60.3005L78.8088 59.7884ZM81.7341 63.5188L81.1463 63.7574L81.149 63.7642L81.1519 63.7709L81.7341 63.5188ZM79.8682 73.1221L79.4118 72.6822L79.4099 72.6841L79.8682 73.1221ZM75.3166 75.7814L75.481 76.3937L75.4852 76.3925L75.3166 75.7814ZM60.7125 70.7336L61.2365 70.3758V70.3758L60.7125 70.7336ZM62.3442 51.981L61.8472 51.5873L61.8456 51.5893L62.3442 51.981ZM81.0919 48.5278L81.3456 47.9465V47.9465L81.0919 48.5278ZM84.5002 50.6948L85.0072 51.0755L85.3476 50.6224L84.9358 50.2337L84.5002 50.6948ZM80.6171 55.8624L80.1666 56.309L80.6832 56.8298L81.1241 56.243L80.6171 55.8624ZM70.5022 54.3261L70.1685 53.7871L70.1685 53.7871L70.5022 54.3261ZM67.4873 58.7813L66.875 58.6164L66.4661 60.1311L67.8127 59.3253L67.4873 58.7813ZM72.9618 69.7613L72.6295 69.2213L72.6194 69.2277L72.9618 69.7613ZM73.8749 64.6058L73.37 64.99L73.3773 64.9994L73.8749 64.6058ZM68.312 63.6661L68.6443 64.2061L68.6552 64.1992L68.312 63.6661ZM67.366 68.7746L66.8534 69.1484L66.8607 69.1584L66.8684 69.1681L67.366 68.7746ZM74.06 58.4411C75.7272 58.7351 77.1788 59.3548 78.4269 60.295L79.1907 59.2819C77.772 58.2132 76.1314 57.5184 74.2813 57.1922L74.06 58.4411ZM78.4343 60.3005C79.6791 61.21 80.5794 62.3595 81.1463 63.7574L82.3219 63.2802C81.6648 61.6599 80.6149 60.3224 79.1833 59.2764L78.4343 60.3005ZM81.1519 63.7709C81.7418 65.1344 81.9015 66.6169 81.6145 68.2372L82.8636 68.4575C83.19 66.6142 83.0131 64.8776 82.3162 63.2668L81.1519 63.7709ZM81.6145 68.2372C81.2998 70.014 80.5634 71.488 79.4118 72.6822L80.3247 73.562C81.664 72.1732 82.5081 70.464 82.8636 68.4575L81.6145 68.2372ZM79.4099 72.6841C78.2809 73.8647 76.8664 74.6951 75.1479 75.1703L75.4852 76.3925C77.4073 75.8611 79.0273 74.9187 80.3265 73.5601L79.4099 72.6841ZM75.1521 75.1691C73.4635 75.6235 71.6379 75.684 69.666 75.3363L69.4448 76.5852C71.5766 76.9611 73.5917 76.902 75.481 76.3937L75.1521 75.1691ZM69.666 75.3363C65.8001 74.6546 63.0192 72.9866 61.2365 70.3758L60.1886 71.0913C62.2024 74.0405 65.3167 75.8573 69.4448 76.5852L69.666 75.3363ZM61.2365 70.3758C59.4599 67.7741 58.9025 64.3431 59.6718 59.9996L58.4228 59.7793C57.6159 64.3346 58.1686 68.133 60.1886 71.0913L61.2365 70.3758ZM59.6718 59.9996C60.2241 56.8818 61.2888 54.3489 62.8427 52.3726L61.8456 51.5893C60.1363 53.7634 59.0031 56.5028 58.4228 59.7793L59.6718 59.9996ZM62.8411 52.3746C64.4299 50.3711 66.3841 48.9953 68.7121 48.2313L68.3172 47.0265C65.7438 47.871 63.5844 49.3966 61.8473 51.5873L62.8411 52.3746ZM68.7121 48.2313C71.0482 47.4647 73.6448 47.3229 76.5167 47.8293L76.7379 46.5804C73.6943 46.0437 70.8824 46.1846 68.3172 47.0265L68.7121 48.2313ZM76.5167 47.8293C78.0702 48.1032 79.51 48.5305 80.8382 49.1091L81.3456 47.9465C79.9187 47.3249 78.3821 46.8703 76.7379 46.5804L76.5167 47.8293ZM80.8382 49.1091C82.163 49.6862 83.2334 50.3714 84.0645 51.156L84.9358 50.2337C83.9777 49.3291 82.776 48.5695 81.3456 47.9465L80.8382 49.1091ZM83.9932 50.3142L80.1101 55.4818L81.1241 56.243L85.0072 51.0755L83.9932 50.3142ZM81.0676 55.4157C79.7656 54.1031 78.0014 53.2735 75.8264 52.89L75.6052 54.1389C77.5871 54.4884 79.0905 55.2241 80.1666 56.309L81.0676 55.4157ZM75.8264 52.89C73.6809 52.5117 71.7778 52.7907 70.1685 53.7871L70.8359 54.8651C72.1278 54.0652 73.7004 53.8031 75.6052 54.1389L75.8264 52.89ZM70.1685 53.7871C68.548 54.7905 67.465 56.4309 66.875 58.6164L68.0996 58.9461C68.6283 56.9878 69.5552 55.6581 70.8359 54.8651L70.1685 53.7871ZM67.8127 59.3253C69.4973 58.3173 71.5624 58.0007 74.06 58.4411L74.2813 57.1922C71.5562 56.7117 69.1657 57.0382 67.1618 58.2372L67.8127 59.3253ZM69.9633 70.8656C71.2083 71.0851 72.3393 70.9139 73.3041 70.2948L72.6194 69.2277C71.972 69.6432 71.1778 69.7919 70.1845 69.6167L69.9633 70.8656ZM73.294 70.3011C74.3027 69.6802 74.9053 68.708 75.1256 67.464L73.8765 67.2437C73.7099 68.1844 73.2862 68.8172 72.6295 69.2214L73.294 70.3011ZM75.1256 67.464C75.3422 66.2413 75.1038 65.1368 74.3725 64.2123L73.3773 64.9994C73.8584 65.6075 74.0375 66.335 73.8765 67.2437L75.1256 67.464ZM74.3798 64.2217C73.6839 63.3072 72.6647 62.7594 71.3975 62.5359L71.1763 63.7848C72.2007 63.9655 72.9068 64.3813 73.37 64.99L74.3798 64.2217ZM71.3975 62.5359C70.1226 62.3111 68.963 62.493 67.9688 63.1331L68.6552 64.1992C69.3359 63.7609 70.1595 63.6055 71.1763 63.7848L71.3975 62.5359ZM67.9798 63.1263C66.9751 63.7447 66.3718 64.7008 66.1552 65.9235L67.4043 66.1437C67.5653 65.235 67.9834 64.6128 68.6443 64.206L67.9798 63.1263ZM66.1552 65.9235C65.9438 67.1171 66.1681 68.2087 66.8534 69.1484L67.8785 68.4008C67.4141 67.7639 67.2476 67.0283 67.4043 66.1437L66.1552 65.9235ZM66.8684 69.1681C67.5929 70.084 68.6503 70.6341 69.9633 70.8656L70.1845 69.6167C69.0993 69.4254 68.3514 68.9977 67.8635 68.381L66.8684 69.1681Z" fill="#202027" mask="url(#path-2-outside-1_18933_333)"/>
</svg>
