<svg width="274" height="274" viewBox="0 0 274 274" fill="none" xmlns="http://www.w3.org/2000/svg">
<g filter="url(#filter0_d_18933_357)">
<rect width="151.762" height="151.53" rx="19.025" transform="matrix(0.984808 0.173648 -0.174411 0.984673 75.4424 30.1034)" fill="#E9D4FF" shape-rendering="crispEdges"/>
<rect x="0.202599" y="0.28958" width="151.262" height="151.03" rx="18.775" transform="matrix(0.984808 0.173648 -0.174411 0.984673 75.496 30.0727)" stroke="#202027" stroke-width="0.5" shape-rendering="crispEdges"/>
<mask id="path-3-outside-1_18933_357" maskUnits="userSpaceOnUse" x="105.365" y="84.2341" width="57.9098" height="68.4002" fill="black">
<rect fill="white" x="105.365" y="84.2341" width="57.9098" height="68.4002"/>
<path d="M128.519 125.333C128.991 122.668 129.964 120.587 131.439 119.088C132.923 117.537 134.968 115.919 137.574 114.236C139.375 113.069 140.733 112.073 141.649 111.245C142.574 110.364 143.136 109.364 143.334 108.245C143.608 106.7 143.159 105.357 141.987 104.216C140.878 103.031 139.284 102.256 137.206 101.889C135.074 101.513 133.039 101.677 131.101 102.379C129.216 103.091 127.581 104.258 126.194 105.882L115.415 97.3876C118.261 94.0428 121.867 91.6838 126.232 90.3104C130.597 88.937 135.604 88.7484 141.253 89.7445C147.595 90.8627 152.448 93.0923 155.814 96.4332C159.242 99.7302 160.536 103.75 159.696 108.492C159.309 110.677 158.591 112.556 157.543 114.13C156.504 115.65 155.348 116.903 154.075 117.887C152.864 118.827 151.305 119.871 149.398 121.019C147.312 122.244 145.744 123.342 144.693 124.31C143.652 125.226 143.004 126.403 142.749 127.842L128.519 125.333ZM131.896 147.688C129.285 147.228 127.268 146.048 125.846 144.149C124.433 142.196 123.934 140.048 124.35 137.703C124.774 135.305 125.95 133.479 127.876 132.225C129.855 130.981 132.177 130.593 134.841 131.063C137.506 131.533 139.554 132.691 140.986 134.537C142.417 136.383 142.921 138.505 142.496 140.903C142.081 143.247 140.874 145.095 138.876 146.446C136.888 147.744 134.561 148.158 131.896 147.688Z"/>
</mask>
<path d="M128.519 125.333C128.991 122.668 129.964 120.587 131.439 119.088C132.923 117.537 134.968 115.919 137.574 114.236C139.375 113.069 140.733 112.073 141.649 111.245C142.574 110.364 143.136 109.364 143.334 108.245C143.608 106.7 143.159 105.357 141.987 104.216C140.878 103.031 139.284 102.256 137.206 101.889C135.074 101.513 133.039 101.677 131.101 102.379C129.216 103.091 127.581 104.258 126.194 105.882L115.415 97.3876C118.261 94.0428 121.867 91.6838 126.232 90.3104C130.597 88.937 135.604 88.7484 141.253 89.7445C147.595 90.8627 152.448 93.0923 155.814 96.4332C159.242 99.7302 160.536 103.75 159.696 108.492C159.309 110.677 158.591 112.556 157.543 114.13C156.504 115.65 155.348 116.903 154.075 117.887C152.864 118.827 151.305 119.871 149.398 121.019C147.312 122.244 145.744 123.342 144.693 124.31C143.652 125.226 143.004 126.403 142.749 127.842L128.519 125.333ZM131.896 147.688C129.285 147.228 127.268 146.048 125.846 144.149C124.433 142.196 123.934 140.048 124.35 137.703C124.774 135.305 125.95 133.479 127.876 132.225C129.855 130.981 132.177 130.593 134.841 131.063C137.506 131.533 139.554 132.691 140.986 134.537C142.417 136.383 142.921 138.505 142.496 140.903C142.081 143.247 140.874 145.095 138.876 146.446C136.888 147.744 134.561 148.158 131.896 147.688Z" fill="white"/>
<path d="M128.519 125.333L127.895 125.222L127.784 125.847L128.409 125.957L128.519 125.333ZM131.439 119.088L131.891 119.533L131.897 119.526L131.439 119.088ZM137.574 114.236L137.918 114.768L137.919 114.768L137.574 114.236ZM141.649 111.245L142.074 111.715L142.08 111.71L142.086 111.704L141.649 111.245ZM141.987 104.216L141.524 104.649L141.534 104.66L141.545 104.67L141.987 104.216ZM131.101 102.379L130.885 101.783L130.877 101.786L131.101 102.379ZM126.194 105.882L125.801 106.38L126.28 106.758L126.676 106.294L126.194 105.882ZM115.415 97.3876L114.932 96.977L114.506 97.4784L115.023 97.8857L115.415 97.3876ZM126.232 90.3104L126.422 90.9152L126.422 90.9152L126.232 90.3104ZM155.814 96.4332L155.367 96.8833L155.374 96.8903L155.814 96.4332ZM157.543 114.13L158.067 114.487L158.071 114.481L157.543 114.13ZM154.075 117.887L153.687 117.385L153.686 117.386L154.075 117.887ZM149.398 121.019L149.719 121.565L149.725 121.562L149.398 121.019ZM144.693 124.31L145.112 124.786L145.117 124.782L145.123 124.776L144.693 124.31ZM142.749 127.842L142.638 128.466L143.263 128.576L143.373 127.952L142.749 127.842ZM125.846 144.149L125.332 144.521L125.338 144.529L125.846 144.149ZM127.876 132.225L127.538 131.688L127.53 131.694L127.876 132.225ZM140.986 134.537L140.484 134.926L140.484 134.926L140.986 134.537ZM138.876 146.446L139.223 146.977L139.231 146.971L138.876 146.446ZM129.144 125.443C129.6 122.868 130.529 120.917 131.891 119.533L130.987 118.644C129.4 120.257 128.383 122.468 127.895 125.222L129.144 125.443ZM131.897 119.526C133.335 118.023 135.337 116.436 137.918 114.768L137.231 113.703C134.599 115.403 132.51 117.051 130.981 118.65L131.897 119.526ZM137.919 114.768C139.73 113.594 141.121 112.576 142.074 111.715L141.224 110.775C140.345 111.569 139.019 112.544 137.23 113.704L137.919 114.768ZM142.086 111.704C143.097 110.742 143.734 109.624 143.959 108.355L142.71 108.135C142.538 109.104 142.052 109.986 141.212 110.786L142.086 111.704ZM143.959 108.355C144.271 106.593 143.745 105.041 142.43 103.762L141.545 104.67C142.574 105.672 142.945 106.807 142.71 108.135L143.959 108.355ZM142.45 103.782C141.223 102.471 139.489 101.648 137.316 101.265L137.095 102.514C139.079 102.863 140.533 103.591 141.524 104.649L142.45 103.782ZM137.316 101.265C135.081 100.871 132.933 101.041 130.885 101.783L131.317 102.975C133.145 102.312 135.067 102.156 137.095 102.514L137.316 101.265ZM130.877 101.786C128.887 102.538 127.164 103.771 125.712 105.471L126.676 106.294C127.998 104.746 129.546 103.644 131.325 102.972L130.877 101.786ZM126.587 105.384L115.808 96.8895L115.023 97.8857L125.801 106.38L126.587 105.384ZM115.898 97.7982C118.663 94.5484 122.166 92.2543 126.422 90.9152L126.042 89.7056C121.568 91.1132 117.859 93.5373 114.932 96.977L115.898 97.7982ZM126.422 90.9152C130.668 89.5792 135.569 89.3861 141.142 90.3689L141.364 89.12C135.639 88.1106 130.526 88.2948 126.042 89.7056L126.422 90.9152ZM141.142 90.3689C147.402 91.4726 152.121 93.6608 155.367 96.8833L156.261 95.9831C152.776 92.5238 147.788 90.2529 141.364 89.12L141.142 90.3689ZM155.374 96.8903C158.647 100.039 159.875 103.845 159.071 108.382L160.32 108.603C161.196 103.655 159.836 99.4217 156.254 95.9761L155.374 96.8903ZM159.071 108.382C158.697 110.496 158.007 112.289 157.015 113.779L158.071 114.481C159.175 112.823 159.921 110.859 160.32 108.603L159.071 108.382ZM157.019 113.773C156.013 115.246 154.901 116.447 153.687 117.385L154.462 118.388C155.795 117.358 156.996 116.055 158.067 114.487L157.019 113.773ZM153.686 117.386C152.501 118.306 150.965 119.336 149.071 120.475L149.725 121.562C151.645 120.407 153.226 119.349 154.464 118.387L153.686 117.386ZM149.077 120.472C146.975 121.707 145.363 122.831 144.263 123.844L145.123 124.776C146.126 123.852 147.65 122.782 149.719 121.565L149.077 120.472ZM144.275 123.834C143.119 124.85 142.403 126.159 142.124 127.731L143.373 127.952C143.604 126.646 144.185 125.601 145.112 124.786L144.275 123.834ZM142.859 127.217L128.63 124.708L128.409 125.957L142.638 128.466L142.859 127.217ZM132.007 147.064C129.534 146.628 127.668 145.523 126.354 143.768L125.338 144.529C126.869 146.573 129.036 147.828 131.786 148.313L132.007 147.064ZM126.36 143.777C125.046 141.961 124.589 139.986 124.974 137.813L123.725 137.593C123.28 140.109 123.82 142.431 125.332 144.521L126.36 143.777ZM124.974 137.813C125.37 135.576 126.452 133.908 128.221 132.756L127.53 131.694C125.447 133.05 124.179 135.034 123.725 137.593L124.974 137.813ZM128.213 132.762C130.038 131.614 132.195 131.24 134.731 131.687L134.952 130.439C132.158 129.946 129.671 130.347 127.538 131.689L128.213 132.762ZM134.731 131.687C137.266 132.135 139.164 133.223 140.484 134.926L141.487 134.148C139.944 132.158 137.745 130.931 134.952 130.439L134.731 131.687ZM140.484 134.926C141.801 136.624 142.267 138.563 141.872 140.793L143.121 141.013C143.575 138.447 143.034 136.142 141.487 134.148L140.484 134.926ZM141.872 140.793C141.487 142.966 140.379 144.665 138.521 145.921L139.231 146.971C141.37 145.525 142.675 143.529 143.121 141.013L141.872 140.793ZM138.53 145.915C136.695 147.113 134.537 147.51 132.007 147.064L131.786 148.313C134.585 148.806 137.08 148.376 139.223 146.977L138.53 145.915Z" fill="#202027" mask="url(#path-3-outside-1_18933_357)"/>
</g>
<defs>
<filter id="filter0_d_18933_357" x="-3.02331" y="-3.01137" width="279.959" height="279.635" filterUnits="userSpaceOnUse" color-interpolation-filters="sRGB">
<feFlood flood-opacity="0" result="BackgroundImageFix"/>
<feColorMatrix in="SourceAlpha" type="matrix" values="0 0 0 0 0 0 0 0 0 0 0 0 0 0 0 0 0 0 127 0" result="hardAlpha"/>
<feMorphology radius="11.3536" operator="erode" in="SourceAlpha" result="effect1_dropShadow_18933_357"/>
<feOffset dy="18.9227"/>
<feGaussianBlur stdDeviation="31.6956"/>
<feComposite in2="hardAlpha" operator="out"/>
<feColorMatrix type="matrix" values="0 0 0 0 0 0 0 0 0 0 0 0 0 0 0 0 0 0 0.3 0"/>
<feBlend mode="normal" in2="BackgroundImageFix" result="effect1_dropShadow_18933_357"/>
<feBlend mode="normal" in="SourceGraphic" in2="effect1_dropShadow_18933_357" result="shape"/>
</filter>
</defs>
</svg>
