<svg width="118" height="90" viewBox="0 0 118 90" fill="none" xmlns="http://www.w3.org/2000/svg">
<rect x="0.202599" y="0.28958" width="100.967" height="100.967" rx="18.775" transform="matrix(0.984808 0.173648 -0.174411 0.984673 17.7505 -0.0307426)" fill="#D9B6FF"/>
<rect x="0.202599" y="0.28958" width="100.967" height="100.967" rx="18.775" transform="matrix(0.984808 0.173648 -0.174411 0.984673 17.7505 -0.0307426)" stroke="#202027" stroke-width="0.5"/>
<mask id="path-2-outside-1_18933_341" maskUnits="userSpaceOnUse" x="32.7904" y="39.4223" width="49.8975" height="39.3237" fill="black">
<rect fill="white" x="32.7904" y="39.4223" width="49.8975" height="39.3237"/>
<path d="M52.8068 43.5815L47.8517 71.5567L39.9376 70.1612L43.8097 48.3006L38.6136 47.3844L39.6966 41.2698L52.8068 43.5815ZM64.3111 75.0359C61.9129 74.6131 59.8826 73.6643 58.2203 72.1898C56.5579 70.7152 55.3873 68.7916 54.7084 66.419C54.0609 64.0243 54.0038 61.3217 54.537 58.311C55.0703 55.3004 56.05 52.7943 57.4762 50.7928C58.9338 48.7694 60.6966 47.3493 62.7648 46.5325C64.833 45.7158 67.0662 45.5188 69.4644 45.9417C71.836 46.3599 73.8529 47.3062 75.5153 48.7808C77.1776 50.2553 78.3326 52.1899 78.9801 54.5845C79.659 56.9572 79.7318 59.6489 79.1985 62.6595C78.6653 65.6702 77.6699 68.1872 76.2123 70.2107C74.7861 72.2122 73.0389 73.6213 70.9707 74.438C68.9025 75.2548 66.6827 75.4541 64.3111 75.0359ZM65.4579 68.5617C66.7902 68.7966 67.956 68.3427 68.9553 67.2001C69.9859 66.0356 70.749 64.0545 71.2445 61.257C71.74 58.4595 71.7013 56.3508 71.1285 54.931C70.5869 53.4892 69.65 52.6509 68.3177 52.416C66.9587 52.1763 65.7639 52.6388 64.7332 53.8034C63.734 54.946 62.9866 56.916 62.4911 59.7135C61.9955 62.5111 62.0185 64.6307 62.5601 66.0725C63.1329 67.4923 64.0989 68.322 65.4579 68.5617Z"/>
</mask>
<path d="M52.8068 43.5815L47.8517 71.5567L39.9376 70.1612L43.8097 48.3006L38.6136 47.3844L39.6966 41.2698L52.8068 43.5815ZM64.3111 75.0359C61.9129 74.6131 59.8826 73.6643 58.2203 72.1898C56.5579 70.7152 55.3873 68.7916 54.7084 66.419C54.0609 64.0243 54.0038 61.3217 54.537 58.311C55.0703 55.3004 56.05 52.7943 57.4762 50.7928C58.9338 48.7694 60.6966 47.3493 62.7648 46.5325C64.833 45.7158 67.0662 45.5188 69.4644 45.9417C71.836 46.3599 73.8529 47.3062 75.5153 48.7808C77.1776 50.2553 78.3326 52.1899 78.9801 54.5845C79.659 56.9572 79.7318 59.6489 79.1985 62.6595C78.6653 65.6702 77.6699 68.1872 76.2123 70.2107C74.7861 72.2122 73.0389 73.6213 70.9707 74.438C68.9025 75.2548 66.6827 75.4541 64.3111 75.0359ZM65.4579 68.5617C66.7902 68.7966 67.956 68.3427 68.9553 67.2001C69.9859 66.0356 70.749 64.0545 71.2445 61.257C71.74 58.4595 71.7013 56.3508 71.1285 54.931C70.5869 53.4892 69.65 52.6509 68.3177 52.416C66.9587 52.1763 65.7639 52.6388 64.7332 53.8034C63.734 54.946 62.9866 56.916 62.4911 59.7135C61.9955 62.5111 62.0185 64.6307 62.5601 66.0725C63.1329 67.4923 64.0989 68.322 65.4579 68.5617Z" fill="white"/>
<path d="M52.8068 43.5815L53.4313 43.6916L53.5419 43.0672L52.9174 42.957L52.8068 43.5815ZM47.8517 71.5567L47.7411 72.1811L48.3656 72.2913L48.4762 71.6668L47.8517 71.5567ZM39.9376 70.1612L39.3131 70.0511L39.2025 70.6756L39.827 70.7857L39.9376 70.1612ZM43.8097 48.3006L44.4342 48.4107L44.5448 47.7863L43.9203 47.6762L43.8097 48.3006ZM38.6136 47.3844L37.989 47.2743L37.8784 47.8987L38.503 48.0088L38.6136 47.3844ZM39.6966 41.2698L39.8072 40.6454L39.1827 40.5352L39.0721 41.1597L39.6966 41.2698ZM52.1823 43.4714L47.2271 71.4466L48.4762 71.6668L53.4313 43.6916L52.1823 43.4714ZM47.9623 70.9323L40.0482 69.5368L39.827 70.7857L47.7411 72.1811L47.9623 70.9323ZM40.5621 70.2714L44.4342 48.4107L43.1851 48.1905L39.3131 70.0511L40.5621 70.2714ZM43.9203 47.6762L38.7242 46.7599L38.503 48.0088L43.6991 48.925L43.9203 47.6762ZM39.2381 47.4945L40.3211 41.3799L39.0721 41.1597L37.989 47.2743L39.2381 47.4945ZM39.586 41.8942L52.6962 44.2059L52.9174 42.957L39.8072 40.6454L39.586 41.8942ZM58.2203 72.1898L57.7991 72.6642V72.6642L58.2203 72.1898ZM54.7084 66.419L54.0961 66.5849L54.0986 66.5938L54.7084 66.419ZM57.4762 50.7928L56.9616 50.4225L56.9597 50.4252L57.4762 50.7928ZM62.7648 46.5325L62.9975 47.1222L62.9975 47.1222L62.7648 46.5325ZM75.5153 48.7808L75.0942 49.2552L75.0942 49.2552L75.5153 48.7808ZM78.9801 54.5845L78.3678 54.7504L78.3703 54.7593L78.9801 54.5845ZM76.2123 70.2107L75.6977 69.8404L75.6958 69.843L76.2123 70.2107ZM70.9707 74.438L71.2034 75.0278V75.0278L70.9707 74.438ZM68.9553 67.2001L68.4804 66.7801L68.4779 66.783L68.9553 67.2001ZM71.1285 54.931L70.5347 55.1543L70.5374 55.1615L70.5402 55.1686L71.1285 54.931ZM64.7332 53.8033L64.2584 53.3834L64.2559 53.3862L64.7332 53.8033ZM62.5601 66.0725L61.9663 66.2958L61.969 66.3029L61.9718 66.3101L62.5601 66.0725ZM64.4217 74.4115C62.1275 74.0069 60.2078 73.1048 58.6414 71.7154L57.7991 72.6642C59.5574 74.2239 61.6983 75.2192 64.2005 75.6604L64.4217 74.4115ZM58.6414 71.7154C57.0789 70.3294 55.9678 68.5143 55.3182 66.2442L54.0986 66.5938C54.8069 69.069 56.0369 71.1011 57.7991 72.6642L58.6414 71.7154ZM55.3207 66.2531C54.7025 63.9668 54.6409 61.3609 55.1615 58.4212L53.9125 58.2009C53.3666 61.2825 53.4193 64.0819 54.0961 66.5849L55.3207 66.2531ZM55.1615 58.4212C55.6823 55.4812 56.6329 53.0688 57.9927 51.1605L56.9597 50.4252C55.4671 52.5198 54.4583 55.1196 53.9125 58.2009L55.1615 58.4212ZM57.9908 51.1631C59.3862 49.2259 61.0557 47.8891 62.9975 47.1222L62.5322 45.9428C60.3376 46.8095 58.4813 48.3128 56.9616 50.4225L57.9908 51.1631ZM62.9975 47.1222C64.9464 46.3526 67.0596 46.1616 69.3538 46.5661L69.575 45.3172C67.0728 44.876 64.7197 45.0789 62.5322 45.9428L62.9975 47.1222ZM69.3538 46.5661C71.62 46.9657 73.5267 47.8649 75.0942 49.2552L75.9364 48.3063C74.1792 46.7476 72.052 45.754 69.575 45.3172L69.3538 46.5661ZM75.0942 49.2552C76.6535 50.6384 77.7487 52.4607 78.3678 54.7504L79.5924 54.4186C78.9165 51.9191 77.7018 49.8722 75.9364 48.3063L75.0942 49.2552ZM78.3703 54.7593C79.0171 57.02 79.0944 59.6115 78.574 62.5494L79.8231 62.7696C80.3692 59.6862 80.3009 56.8944 79.5899 54.4097L78.3703 54.7593ZM78.574 62.5494C78.0537 65.487 77.0884 67.9098 75.6977 69.8404L76.7269 70.581C78.2514 68.4647 79.2769 65.8533 79.8231 62.7696L78.574 62.5494ZM75.6958 69.843C74.333 71.7555 72.6803 73.0813 70.7381 73.8483L71.2034 75.0278C73.3975 74.1613 75.2392 72.6688 76.7288 70.5783L75.6958 69.843ZM70.7381 73.8483C68.788 74.6184 66.6878 74.8111 64.4217 74.4115L64.2005 75.6604C66.6775 76.0971 69.0171 75.8911 71.2034 75.0278L70.7381 73.8483ZM65.3473 69.1861C66.9283 69.4649 68.3084 68.9028 69.4326 67.6173L68.4779 66.783C67.6036 67.7827 66.6521 68.1283 65.5685 67.9372L65.3473 69.1861ZM69.4302 67.6201C70.5792 66.3218 71.3676 64.1982 71.869 61.3671L70.62 61.1469C70.1304 63.9108 69.3927 65.7493 68.4804 66.7802L69.4302 67.6201ZM71.869 61.3671C72.3702 58.5378 72.358 56.2828 71.7167 54.6934L70.5402 55.1686C71.0447 56.4189 71.1098 58.3812 70.62 61.1469L71.869 61.3671ZM71.7222 54.7077C71.115 53.091 70.0156 52.0714 68.4283 51.7915L68.2071 53.0404C69.2844 53.2304 70.0589 53.8875 70.5347 55.1543L71.7222 54.7077ZM68.4283 51.7915C66.8211 51.5081 65.4133 52.0784 64.2584 53.3834L65.2081 54.2233C66.1145 53.1992 67.0963 52.8445 68.2071 53.0404L68.4283 51.7915ZM64.2559 53.3862C63.1391 54.6631 62.3673 56.776 61.8665 59.6034L63.1156 59.8237C63.6058 57.056 64.3288 55.2288 65.2106 54.2205L64.2559 53.3862ZM61.8665 59.6034C61.3654 62.4326 61.3636 64.691 61.9663 66.2958L63.1539 65.8492C62.6735 64.5704 62.6257 62.5895 63.1156 59.8237L61.8665 59.6034ZM61.9718 66.3101C62.6158 67.906 63.7462 68.9038 65.3473 69.1861L65.5685 67.9372C64.4516 67.7403 63.6501 67.0786 63.1483 65.8349L61.9718 66.3101Z" fill="#202027" mask="url(#path-2-outside-1_18933_341)"/>
</svg>
