<svg width="118" height="108" viewBox="0 0 118 108" fill="none" xmlns="http://www.w3.org/2000/svg">
<rect x="0.202599" y="0.28958" width="100.967" height="100.967" rx="18.775" transform="matrix(0.984808 0.173648 -0.174411 0.984673 17.7505 -9.68834)" fill="#D9B6FF"/>
<rect x="0.202599" y="0.28958" width="100.967" height="100.967" rx="18.775" transform="matrix(0.984808 0.173648 -0.174411 0.984673 17.7505 -9.68834)" stroke="#202027" stroke-width="0.5"/>
<mask id="path-2-outside-1_18933_319" maskUnits="userSpaceOnUse" x="38.8735" y="30.8066" width="36.9206" height="36.0816" fill="black">
<rect fill="white" x="38.8735" y="30.8066" width="36.9206" height="36.0816"/>
<path d="M58.3884 34.9081L53.4333 62.8833L45.5192 61.4878L49.3913 39.6272L44.1952 38.711L45.2782 32.5964L58.3884 34.9081ZM74.5872 37.7644L69.6321 65.7396L61.718 64.3441L65.5901 42.4835L60.394 41.5673L61.477 35.4527L74.5872 37.7644Z"/>
</mask>
<path d="M58.3884 34.9081L53.4333 62.8833L45.5192 61.4878L49.3913 39.6272L44.1952 38.711L45.2782 32.5964L58.3884 34.9081ZM74.5872 37.7644L69.6321 65.7396L61.718 64.3441L65.5901 42.4835L60.394 41.5673L61.477 35.4527L74.5872 37.7644Z" fill="white"/>
<path d="M58.3884 34.9081L59.0129 35.0182L59.1235 34.3938L58.499 34.2836L58.3884 34.9081ZM53.4333 62.8833L53.3227 63.5077L53.9472 63.6179L54.0578 62.9934L53.4333 62.8833ZM45.5192 61.4878L44.8947 61.3777L44.7841 62.0022L45.4086 62.1123L45.5192 61.4878ZM49.3913 39.6272L50.0158 39.7373L50.1264 39.1129L49.5019 39.0028L49.3913 39.6272ZM44.1952 38.711L43.5706 38.6009L43.46 39.2253L44.0846 39.3354L44.1952 38.711ZM45.2782 32.5964L45.3888 31.972L44.7643 31.8618L44.6537 32.4863L45.2782 32.5964ZM57.7639 34.798L52.8087 62.7732L54.0578 62.9934L59.0129 35.0182L57.7639 34.798ZM53.5439 62.2589L45.6298 60.8634L45.4086 62.1123L53.3227 63.5077L53.5439 62.2589ZM46.1437 61.598L50.0158 39.7373L48.7667 39.5171L44.8947 61.3777L46.1437 61.598ZM49.5019 39.0028L44.3058 38.0865L44.0846 39.3354L49.2807 40.2516L49.5019 39.0028ZM44.8197 38.8211L45.9027 32.7065L44.6537 32.4863L43.5706 38.6009L44.8197 38.8211ZM45.1676 33.2208L58.2778 35.5325L58.499 34.2836L45.3888 31.972L45.1676 33.2208ZM74.5872 37.7644L75.2117 37.8745L75.3223 37.25L74.6978 37.1399L74.5872 37.7644ZM69.6321 65.7396L69.5215 66.364L70.146 66.4742L70.2566 65.8497L69.6321 65.7396ZM61.718 64.3441L61.0935 64.234L60.9829 64.8584L61.6074 64.9686L61.718 64.3441ZM65.5901 42.4835L66.2146 42.5936L66.3252 41.9692L65.7007 41.859L65.5901 42.4835ZM60.394 41.5673L59.7694 41.4572L59.6588 42.0816L60.2834 42.1917L60.394 41.5673ZM61.477 35.4527L61.5876 34.8282L60.9631 34.7181L60.8525 35.3426L61.477 35.4527ZM73.9627 37.6542L69.0075 65.6295L70.2566 65.8497L75.2117 37.8745L73.9627 37.6542ZM69.7427 65.1151L61.8286 63.7197L61.6074 64.9686L69.5215 66.364L69.7427 65.1151ZM62.3425 64.4542L66.2146 42.5936L64.9655 42.3734L61.0935 64.234L62.3425 64.4542ZM65.7007 41.859L60.5046 40.9428L60.2834 42.1917L65.4795 43.1079L65.7007 41.859ZM61.0185 41.6774L62.1016 35.5628L60.8525 35.3426L59.7694 41.4572L61.0185 41.6774ZM61.3664 36.0771L74.4766 38.3888L74.6978 37.1399L61.5876 34.8282L61.3664 36.0771Z" fill="#202027" mask="url(#path-2-outside-1_18933_319)"/>
</svg>
