<svg width="52" height="70" viewBox="0 0 52 70" fill="none" xmlns="http://www.w3.org/2000/svg">
<rect x="0.202599" y="0.28958" width="100.967" height="100.967" rx="18.775" transform="matrix(0.984808 0.173648 -0.174411 0.984673 -48.8102 -47.5975)" fill="#D9B6FF"/>
<rect x="0.202599" y="0.28958" width="100.967" height="100.967" rx="18.775" transform="matrix(0.984808 0.173648 -0.174411 0.984673 -48.8102 -47.5975)" stroke="#202027" stroke-width="0.5"/>
<mask id="path-2-outside-1_18933_315" maskUnits="userSpaceOnUse" x="-38.5202" y="-9.01268" width="62.5256" height="40.5965" fill="black">
<rect fill="white" x="-38.5202" y="-9.01268" width="62.5256" height="40.5965"/>
<path d="M-9.57783 20.0776L-13.7347 19.3446L-14.6833 24.6998L-22.3975 23.3396L-21.4489 17.9844L-36.2379 15.3767L-35.3247 10.2212L-19.6807 -5.03028L-11.4868 -3.58548L-25.7735 10.7514L-20.0978 11.7522L-19.2554 6.99642L-11.781 8.31436L-12.6234 13.0701L-8.46647 13.8031L-9.57783 20.0776ZM18.409 25.0124L14.2521 24.2794L13.3036 29.6347L5.58936 28.2745L6.53791 22.9192L-8.25101 20.3115L-7.33785 15.1561L8.30616 -0.095439L16.5 1.34936L2.21335 15.6863L7.8891 16.687L8.73147 11.9313L16.2059 13.2492L15.3635 18.005L19.5204 18.738L18.409 25.0124Z"/>
</mask>
<path d="M-9.57783 20.0776L-13.7347 19.3446L-14.6833 24.6998L-22.3975 23.3396L-21.4489 17.9844L-36.2379 15.3767L-35.3247 10.2212L-19.6807 -5.03028L-11.4868 -3.58548L-25.7735 10.7514L-20.0978 11.7522L-19.2554 6.99642L-11.781 8.31436L-12.6234 13.0701L-8.46647 13.8031L-9.57783 20.0776ZM18.409 25.0124L14.2521 24.2794L13.3036 29.6347L5.58936 28.2745L6.53791 22.9192L-8.25101 20.3115L-7.33785 15.1561L8.30616 -0.095439L16.5 1.34936L2.21335 15.6863L7.8891 16.687L8.73147 11.9313L16.2059 13.2492L15.3635 18.005L19.5204 18.738L18.409 25.0124Z" fill="white"/>
<path d="M-9.57783 20.0776L-9.68844 20.702L-9.0639 20.8121L-8.9533 20.1877L-9.57783 20.0776ZM-13.7347 19.3446L-13.6241 18.7201L-14.2486 18.61L-14.3592 19.2345L-13.7347 19.3446ZM-14.6833 24.6998L-14.7939 25.3243L-14.1693 25.4344L-14.0587 24.81L-14.6833 24.6998ZM-22.3975 23.3396L-23.022 23.2295L-23.1326 23.8539L-22.5081 23.9641L-22.3975 23.3396ZM-21.4489 17.9844L-20.8244 18.0945L-20.7138 17.47L-21.3383 17.3599L-21.4489 17.9844ZM-36.2379 15.3767L-36.8624 15.2666L-36.973 15.891L-36.3485 16.0011L-36.2379 15.3767ZM-35.3247 10.2212L-35.7673 9.76744L-35.9136 9.91004L-35.9492 10.1111L-35.3247 10.2212ZM-19.6807 -5.03028L-19.5701 -5.65472L-19.8904 -5.7112L-20.1233 -5.48408L-19.6807 -5.03028ZM-11.4868 -3.58548L-11.0377 -3.13812L-10.1798 -3.99897L-11.3762 -4.20992L-11.4868 -3.58548ZM-25.7735 10.7514L-26.2227 10.3041L-27.0805 11.1649L-25.8841 11.3759L-25.7735 10.7514ZM-20.0978 11.7522L-20.2084 12.3767L-19.5838 12.4868L-19.4732 11.8623L-20.0978 11.7522ZM-19.2554 6.99642L-19.1448 6.37198L-19.7693 6.26185L-19.8799 6.8863L-19.2554 6.99642ZM-11.781 8.31436L-11.1564 8.42448L-11.0458 7.80004L-11.6704 7.68991L-11.781 8.31436ZM-12.6234 13.0701L-13.2479 12.96L-13.3585 13.5845L-12.734 13.6946L-12.6234 13.0701ZM-8.46647 13.8031L-7.84193 13.9132L-7.73133 13.2888L-8.35586 13.1787L-8.46647 13.8031ZM-9.46722 19.4531L-13.6241 18.7201L-13.8453 19.969L-9.68844 20.702L-9.46722 19.4531ZM-14.3592 19.2345L-15.3078 24.5897L-14.0587 24.81L-13.1102 19.4547L-14.3592 19.2345ZM-14.5727 24.0754L-22.2869 22.7152L-22.5081 23.9641L-14.7939 25.3243L-14.5727 24.0754ZM-21.773 23.4497L-20.8244 18.0945L-22.0735 17.8742L-23.022 23.2295L-21.773 23.4497ZM-21.3383 17.3599L-36.1273 14.7522L-36.3485 16.0011L-21.5595 18.6088L-21.3383 17.3599ZM-35.6133 15.4868L-34.7002 10.3314L-35.9492 10.1111L-36.8624 15.2666L-35.6133 15.4868ZM-34.8821 10.6751L-19.238 -4.57647L-20.1233 -5.48408L-35.7673 9.76744L-34.8821 10.6751ZM-19.7913 -4.40583L-11.5974 -2.96103L-11.3762 -4.20992L-19.5701 -5.65472L-19.7913 -4.40583ZM-11.936 -4.03283L-26.2227 10.3041L-25.3243 11.1988L-11.0377 -3.13812L-11.936 -4.03283ZM-25.8841 11.3759L-20.2084 12.3767L-19.9871 11.1278L-25.6629 10.127L-25.8841 11.3759ZM-19.4732 11.8623L-18.6308 7.10654L-19.8799 6.8863L-20.7223 11.6421L-19.4732 11.8623ZM-19.366 7.62087L-11.8916 8.93881L-11.6704 7.68991L-19.1448 6.37198L-19.366 7.62087ZM-12.4055 8.20424L-13.2479 12.96L-11.9988 13.1803L-11.1564 8.42448L-12.4055 8.20424ZM-12.734 13.6946L-8.57707 14.4276L-8.35586 13.1787L-12.5127 12.4457L-12.734 13.6946ZM-9.091 13.693L-10.2024 19.9674L-8.9533 20.1877L-7.84193 13.9132L-9.091 13.693ZM18.409 25.0124L18.2984 25.6368L18.9229 25.747L19.0336 25.1225L18.409 25.0124ZM14.2521 24.2794L14.3627 23.655L13.7382 23.5449L13.6276 24.1693L14.2521 24.2794ZM13.3036 29.6347L13.193 30.2591L13.8175 30.3693L13.9281 29.7448L13.3036 29.6347ZM5.58936 28.2745L4.96483 28.1643L4.85422 28.7888L5.47875 28.8989L5.58936 28.2745ZM6.53791 22.9192L7.16244 23.0293L7.27305 22.4049L6.64852 22.2948L6.53791 22.9192ZM-8.25101 20.3115L-8.87554 20.2014L-8.98615 20.8258L-8.36162 20.936L-8.25101 20.3115ZM-7.33785 15.1561L-7.78049 14.7023L-7.92677 14.8449L-7.96239 15.046L-7.33785 15.1561ZM8.30616 -0.0954392L8.41677 -0.719886L8.09648 -0.776361L7.86352 -0.549246L8.30616 -0.0954392ZM16.5 1.34936L16.9492 1.79671L17.807 0.935869L16.6106 0.724913L16.5 1.34936ZM2.21335 15.6863L1.76418 15.2389L0.90635 16.0997L2.10274 16.3107L2.21335 15.6863ZM7.8891 16.687L7.77849 17.3115L8.40302 17.4216L8.51363 16.7972L7.8891 16.687ZM8.73147 11.9313L8.84207 11.3068L8.21754 11.1967L8.10693 11.8211L8.73147 11.9313ZM16.2059 13.2492L16.8304 13.3593L16.941 12.7349L16.3165 12.6248L16.2059 13.2492ZM15.3635 18.005L14.739 17.8949L14.6284 18.5193L15.2529 18.6294L15.3635 18.005ZM19.5204 18.738L20.1449 18.8481L20.2555 18.2236L19.631 18.1135L19.5204 18.738ZM18.5196 24.3879L14.3627 23.655L14.1415 24.9039L18.2984 25.6368L18.5196 24.3879ZM13.6276 24.1693L12.679 29.5246L13.9281 29.7448L14.8767 24.3895L13.6276 24.1693ZM13.4142 29.0102L5.69996 27.65L5.47875 28.8989L13.193 30.2591L13.4142 29.0102ZM6.21389 28.3846L7.16244 23.0293L5.91338 22.8091L4.96483 28.1643L6.21389 28.3846ZM6.64852 22.2948L-8.14041 19.6871L-8.36162 20.936L6.42731 23.5436L6.64852 22.2948ZM-7.62648 20.4216L-6.71332 15.2662L-7.96239 15.046L-8.87554 20.2014L-7.62648 20.4216ZM-6.89521 15.6099L8.7488 0.358369L7.86352 -0.549246L-7.78049 14.7023L-6.89521 15.6099ZM8.19556 0.529008L16.3894 1.97381L16.6106 0.724913L8.41677 -0.719886L8.19556 0.529008ZM16.0509 0.902007L1.76418 15.2389L2.66251 16.1336L16.9492 1.79671L16.0509 0.902007ZM2.10274 16.3107L7.77849 17.3115L7.9997 16.0626L2.32395 15.0618L2.10274 16.3107ZM8.51363 16.7972L9.356 12.0414L8.10693 11.8211L7.26456 16.5769L8.51363 16.7972ZM8.62086 12.5557L16.0953 13.8736L16.3165 12.6248L8.84207 11.3068L8.62086 12.5557ZM15.5813 13.1391L14.739 17.8949L15.988 18.1151L16.8304 13.3593L15.5813 13.1391ZM15.2529 18.6294L19.4098 19.3624L19.631 18.1135L15.4741 17.3805L15.2529 18.6294ZM18.8958 18.6278L17.7845 24.9023L19.0336 25.1225L20.1449 18.8481L18.8958 18.6278Z" fill="#202027" mask="url(#path-2-outside-1_18933_315)"/>
</svg>
