<svg width="53" height="71" viewBox="0 0 53 71" fill="none" xmlns="http://www.w3.org/2000/svg">
<rect x="0.202599" y="0.28958" width="100.967" height="100.967" rx="18.775" transform="matrix(0.984808 0.173648 -0.174411 0.984673 17.7505 -0.0307426)" fill="#D9B6FF"/>
<rect x="0.202599" y="0.28958" width="100.967" height="100.967" rx="18.775" transform="matrix(0.984808 0.173648 -0.174411 0.984673 17.7505 -0.0307426)" stroke="#202027" stroke-width="0.5"/>
<mask id="path-2-outside-1_18933_343" maskUnits="userSpaceOnUse" x="43.3051" y="41.2456" width="31.0117" height="35.0397" fill="black">
<rect fill="white" x="43.3051" y="41.2456" width="31.0117" height="35.0397"/>
<path d="M72.7118 47.0913L71.8341 52.0469L57.8841 73.3257L49.2506 71.8034L62.5273 51.7659L55.1728 50.4691L54.4083 54.7853L47.6533 53.5942L49.5292 43.0036L72.7118 47.0913Z"/>
</mask>
<path d="M72.7118 47.0913L71.8341 52.0469L57.8841 73.3257L49.2506 71.8034L62.5273 51.7659L55.1728 50.4691L54.4083 54.7853L47.6533 53.5942L49.5292 43.0036L72.7118 47.0913Z" fill="white"/>
<path d="M72.7118 47.0913L73.3364 47.2014L73.447 46.577L72.8224 46.4669L72.7118 47.0913ZM71.8341 52.0469L72.3645 52.3942L72.4359 52.2853L72.4586 52.157L71.8341 52.0469ZM57.8841 73.3257L57.7735 73.9502L58.1852 74.0228L58.4145 73.673L57.8841 73.3257ZM49.2506 71.8034L48.7219 71.4535L48.1876 72.2599L49.14 72.4278L49.2506 71.8034ZM62.5273 51.7659L63.056 52.1158L63.5903 51.3094L62.6379 51.1415L62.5273 51.7659ZM55.1728 50.4691L55.2834 49.8447L54.6589 49.7345L54.5482 50.359L55.1728 50.4691ZM54.4083 54.7853L54.2977 55.4097L54.9222 55.5199L55.0328 54.8954L54.4083 54.7853ZM47.6533 53.5942L47.0288 53.4841L46.9182 54.1085L47.5427 54.2187L47.6533 53.5942ZM49.5292 43.0036L49.6398 42.3791L49.0153 42.269L48.9047 42.8935L49.5292 43.0036ZM72.0873 46.9812L71.2095 51.9368L72.4586 52.157L73.3364 47.2014L72.0873 46.9812ZM71.3037 51.6996L57.3537 72.9784L58.4145 73.673L72.3645 52.3942L71.3037 51.6996ZM57.9947 72.7013L49.3612 71.179L49.14 72.4278L57.7735 73.9502L57.9947 72.7013ZM49.7793 72.1533L63.056 52.1158L61.9986 51.416L48.7219 71.4535L49.7793 72.1533ZM62.6379 51.1415L55.2834 49.8447L55.0622 51.0936L62.4167 52.3903L62.6379 51.1415ZM54.5482 50.359L53.7837 54.6752L55.0328 54.8954L55.7973 50.5792L54.5482 50.359ZM54.5189 54.1608L47.7639 52.9698L47.5427 54.2187L54.2977 55.4097L54.5189 54.1608ZM48.2779 53.7043L50.1537 43.1137L48.9047 42.8935L47.0288 53.4841L48.2779 53.7043ZM49.4186 43.628L72.6012 47.7158L72.8224 46.4669L49.6398 42.3791L49.4186 43.628Z" fill="#202027" mask="url(#path-2-outside-1_18933_343)"/>
</svg>
