<svg width="118" height="118" viewBox="0 0 118 118" fill="none" xmlns="http://www.w3.org/2000/svg">
<rect x="0.202599" y="0.28958" width="100.967" height="100.967" rx="18.775" transform="matrix(0.984808 0.173648 -0.174411 0.984673 17.7505 -0.0307426)" fill="#D9B6FF"/>
<rect x="0.202599" y="0.28958" width="100.967" height="100.967" rx="18.775" transform="matrix(0.984808 0.173648 -0.174411 0.984673 17.7505 -0.0307426)" stroke="#202027" stroke-width="0.5"/>
<mask id="path-2-outside-1_18933_327" maskUnits="userSpaceOnUse" x="42.813" y="41.1588" width="31.0117" height="35.0397" fill="black">
<rect fill="white" x="42.813" y="41.1588" width="31.0117" height="35.0397"/>
<path d="M68.4128 68.7117L67.3014 74.9862L45.5177 71.1451L46.3955 66.1895L58.6019 58.2447C59.7844 57.4641 60.6078 56.7713 61.0722 56.1663C61.5413 55.5347 61.8372 54.8725 61.9599 54.1798C62.1204 53.2739 61.939 52.5138 61.4158 51.8995C60.8926 51.2853 60.0447 50.8747 58.8723 50.668C57.833 50.4848 56.8313 50.5554 55.867 50.8799C54.9341 51.1825 54.11 51.7241 53.3947 52.5046L48.0995 48.1915C49.5129 46.5724 51.2976 45.4172 53.4535 44.7258C55.6094 44.0344 58.033 43.926 60.7243 44.4005C62.8561 44.7764 64.6733 45.454 66.1761 46.4334C67.7055 47.4174 68.8075 48.642 69.4823 50.1073C70.1884 51.5506 70.3904 53.1248 70.0884 54.83C69.8194 56.3486 69.2315 57.7286 68.3247 58.97C67.4492 60.1894 65.9278 61.4872 63.7605 62.8634L57.6208 66.8088L68.4128 68.7117Z"/>
</mask>
<path d="M68.4128 68.7117L67.3014 74.9862L45.5177 71.1451L46.3955 66.1895L58.6019 58.2447C59.7844 57.4641 60.6078 56.7713 61.0722 56.1663C61.5413 55.5347 61.8372 54.8725 61.9599 54.1798C62.1204 53.2739 61.939 52.5138 61.4158 51.8995C60.8926 51.2853 60.0447 50.8747 58.8723 50.668C57.833 50.4848 56.8313 50.5554 55.867 50.8799C54.9341 51.1825 54.11 51.7241 53.3947 52.5046L48.0995 48.1915C49.5129 46.5724 51.2976 45.4172 53.4535 44.7258C55.6094 44.0344 58.033 43.926 60.7243 44.4005C62.8561 44.7764 64.6733 45.454 66.1761 46.4334C67.7055 47.4174 68.8075 48.642 69.4823 50.1073C70.1884 51.5506 70.3904 53.1248 70.0884 54.83C69.8194 56.3486 69.2315 57.7286 68.3247 58.97C67.4492 60.1894 65.9278 61.4872 63.7605 62.8634L57.6208 66.8088L68.4128 68.7117Z" fill="white"/>
<path d="M68.4128 68.7117L69.0373 68.8218L69.1479 68.1974L68.5234 68.0873L68.4128 68.7117ZM67.3014 74.9862L67.1908 75.6106L67.8153 75.7207L67.9259 75.0963L67.3014 74.9862ZM45.5177 71.1451L44.8932 71.035L44.7826 71.6594L45.4071 71.7696L45.5177 71.1451ZM46.3955 66.1895L46.0497 65.6582L45.8189 65.8084L45.7709 66.0794L46.3955 66.1895ZM58.6019 58.2447L58.9477 58.776L58.9511 58.7738L58.6019 58.2447ZM61.0722 56.1663L61.5753 56.5521L61.5813 56.5441L61.0722 56.1663ZM55.867 50.8799L56.0623 51.4831L56.069 51.4809L55.867 50.8799ZM53.3947 52.5046L52.9938 52.9963L53.4577 53.3742L53.8622 52.9328L53.3947 52.5046ZM48.0995 48.1915L47.6218 47.7748L47.1903 48.2691L47.6987 48.6832L48.0995 48.1915ZM53.4535 44.7258L53.6468 45.3296L53.6468 45.3296L53.4535 44.7258ZM66.1761 46.4334L65.8294 46.9646L65.8325 46.9666L66.1761 46.4334ZM69.4823 50.1073L68.9061 50.3728L68.9092 50.3795L68.9125 50.3862L69.4823 50.1073ZM68.3247 58.97L67.8125 58.5962L67.8095 58.6005L68.3247 58.97ZM63.7605 62.8634L63.4207 62.3283L63.4178 62.3301L63.7605 62.8634ZM57.6208 66.8088L57.2782 66.2755L55.9144 67.1519L57.5102 67.4333L57.6208 66.8088ZM67.7882 68.6016L66.6769 74.876L67.9259 75.0963L69.0373 68.8218L67.7882 68.6016ZM67.412 74.3617L45.6283 70.5207L45.4071 71.7696L67.1908 75.6106L67.412 74.3617ZM46.1422 71.2552L47.02 66.2996L45.7709 66.0794L44.8932 71.035L46.1422 71.2552ZM46.7412 66.7208L58.9477 58.776L58.2561 57.7134L46.0497 65.6582L46.7412 66.7208ZM58.9511 58.7738C60.151 57.9816 61.0456 57.2422 61.5753 56.5521L60.5691 55.7805C60.1701 56.3004 59.4177 56.9465 58.2527 57.7156L58.9511 58.7738ZM61.5813 56.5441C62.1021 55.8428 62.4426 55.0905 62.5844 54.2899L61.3354 54.0696C61.2318 54.6545 60.9805 55.2265 60.5631 55.7885L61.5813 56.5441ZM62.5844 54.2899C62.7727 53.227 62.5626 52.2676 61.8988 51.4882L60.9327 52.3108C61.3153 52.76 61.468 53.3208 61.3354 54.0696L62.5844 54.2899ZM61.8988 51.4882C61.2438 50.7192 60.2337 50.2641 58.9829 50.0436L58.7617 51.2925C59.8557 51.4854 60.5413 51.8513 60.9327 52.3108L61.8988 51.4882ZM58.9829 50.0436C57.8432 49.8426 56.7338 49.9193 55.665 50.279L56.069 51.4809C56.9288 51.1915 57.8229 51.1269 58.7617 51.2925L58.9829 50.0436ZM55.6717 50.2768C54.6262 50.6159 53.7105 51.2217 52.9271 52.0765L53.8622 52.9328C54.5095 52.2265 55.2419 51.7491 56.0623 51.4831L55.6717 50.2768ZM53.7955 52.0129L48.5003 47.6998L47.6987 48.6832L52.9938 52.9963L53.7955 52.0129ZM48.5772 48.6082C49.9105 47.0809 51.5948 45.9876 53.6468 45.3296L53.2602 44.122C51.0003 44.8467 49.1153 46.0639 47.6218 47.7748L48.5772 48.6082ZM53.6468 45.3296C55.6862 44.6755 58.003 44.5646 60.6137 45.025L60.8349 43.7761C58.063 43.2873 55.5326 43.3933 53.2602 44.122L53.6468 45.3296ZM60.6137 45.025C62.6783 45.389 64.4114 46.0405 65.8294 46.9646L66.5227 45.9021C64.9352 44.8675 63.0338 44.1638 60.8349 43.7761L60.6137 45.025ZM65.8325 46.9666C67.2738 47.8939 68.2881 49.0306 68.9061 50.3728L70.0584 49.8418C69.327 48.2534 68.1372 46.9408 66.5196 45.9001L65.8325 46.9666ZM68.9125 50.3862C69.555 51.6994 69.7444 53.1361 69.4639 54.7199L70.7129 54.9401C71.0365 53.1135 70.8218 51.4018 70.0521 49.8284L68.9125 50.3862ZM69.4639 54.7199C69.2117 56.1436 68.6621 57.4334 67.8126 58.5962L68.8367 59.3437C69.8009 58.0239 70.4271 56.5537 70.7129 54.9401L69.4639 54.7199ZM67.8095 58.6005C67.0035 59.7231 65.5612 60.9691 63.4207 62.3283L64.1003 63.3986C66.2944 62.0053 67.8949 60.6556 68.8398 59.3395L67.8095 58.6005ZM63.4178 62.3301L57.2782 66.2755L57.9635 67.3421L64.1032 63.3968L63.4178 62.3301ZM57.5102 67.4333L68.3021 69.3362L68.5234 68.0873L57.7314 66.1844L57.5102 67.4333Z" fill="#202027" mask="url(#path-2-outside-1_18933_327)"/>
</svg>
