<svg width="118" height="118" viewBox="0 0 118 118" fill="none" xmlns="http://www.w3.org/2000/svg">
<rect x="0.202599" y="0.28958" width="100.967" height="100.967" rx="18.775" transform="matrix(0.984808 0.173648 -0.174411 0.984673 17.7505 -0.0307426)" fill="#D9B6FF"/>
<rect x="0.202599" y="0.28958" width="100.967" height="100.967" rx="18.775" transform="matrix(0.984808 0.173648 -0.174411 0.984673 17.7505 -0.0307426)" stroke="#202027" stroke-width="0.5"/>
<mask id="path-2-outside-1_18933_321" maskUnits="userSpaceOnUse" x="28.3587" y="38.6409" width="60.7304" height="41.2338" fill="black">
<rect fill="white" x="28.3587" y="38.6409" width="60.7304" height="41.2338"/>
<path d="M57.4125 67.72L53.2556 66.987L52.307 72.3423L44.5928 70.9821L45.5413 65.6268L30.7524 63.0191L31.6656 57.8637L47.3096 42.6122L55.5035 44.057L41.2168 58.3939L46.8925 59.3947L47.7349 54.6389L55.2093 55.9568L54.3669 60.7126L58.5238 61.4456L57.4125 67.72ZM81.2178 62.2325C82.3647 63.2041 83.1878 64.2971 83.6872 65.5116C84.1865 66.7262 84.3111 68.0395 84.061 69.4515C83.7495 71.21 82.9695 72.666 81.721 73.8196C80.4725 74.9732 78.8652 75.7476 76.8991 76.1428C74.9331 76.5379 72.751 76.5241 70.3528 76.1012C67.9546 75.6784 65.8999 74.9451 64.1886 73.9016C62.4774 72.858 61.2335 71.5809 60.4569 70.0702C59.6803 68.5595 59.4477 66.9249 59.7592 65.1665C60.0093 63.7544 60.5775 62.5633 61.4638 61.5931C62.3501 60.6228 63.4989 59.8775 64.91 59.357C64.0687 58.5218 63.4666 57.5776 63.1035 56.5245C62.7671 55.4761 62.7027 54.3657 62.9104 53.1934C63.1982 51.5682 63.917 50.225 65.0668 49.1639C66.2212 48.0761 67.6968 47.3472 69.4935 46.9771C71.3169 46.6118 73.3211 46.6217 75.5061 47.007C77.6911 47.3923 79.564 48.066 81.1248 49.028C82.7122 49.9948 83.8613 51.1866 84.5722 52.6032C85.2877 53.9933 85.5015 55.5009 85.2137 57.1261C85.006 58.2984 84.5508 59.3171 83.848 60.1823C83.1718 61.0522 82.2951 61.7356 81.2178 62.2325ZM74.5221 52.5621C73.5362 52.3882 72.6896 52.5137 71.9824 52.9385C71.2798 53.3367 70.846 54.002 70.6808 54.9345C70.5204 55.8404 70.686 56.6114 71.1779 57.2476C71.7011 57.8619 72.469 58.2583 73.4816 58.4369C74.4941 58.6154 75.3517 58.5056 76.0542 58.1075C76.7615 57.6827 77.1954 57.0173 77.3558 56.1115C77.521 55.179 77.342 54.4056 76.8187 53.7913C76.3003 53.1504 75.5347 52.7406 74.5221 52.5621ZM71.3367 70.5461C72.6158 70.7717 73.6826 70.6438 74.5372 70.1626C75.4233 69.6594 75.9606 68.875 76.1494 67.8092C76.3382 66.7435 76.1005 65.8361 75.4362 65.0871C74.8034 64.3161 73.8475 63.8178 72.5684 63.5923C71.2894 63.3668 70.2068 63.5056 69.3208 64.0088C68.4662 64.49 67.9445 65.2635 67.7557 66.3292C67.5669 67.3949 67.789 68.3133 68.4218 69.0843C69.086 69.8333 70.0577 70.3206 71.3367 70.5461Z"/>
</mask>
<path d="M57.4125 67.72L53.2556 66.987L52.307 72.3423L44.5928 70.9821L45.5413 65.6268L30.7524 63.0191L31.6656 57.8637L47.3096 42.6122L55.5035 44.057L41.2168 58.3939L46.8925 59.3947L47.7349 54.6389L55.2093 55.9568L54.3669 60.7126L58.5238 61.4456L57.4125 67.72ZM81.2178 62.2325C82.3647 63.2041 83.1878 64.2971 83.6872 65.5116C84.1865 66.7262 84.3111 68.0395 84.061 69.4515C83.7495 71.21 82.9695 72.666 81.721 73.8196C80.4725 74.9732 78.8652 75.7476 76.8991 76.1428C74.9331 76.5379 72.751 76.5241 70.3528 76.1012C67.9546 75.6784 65.8999 74.9451 64.1886 73.9016C62.4774 72.858 61.2335 71.5809 60.4569 70.0702C59.6803 68.5595 59.4477 66.9249 59.7592 65.1665C60.0093 63.7544 60.5775 62.5633 61.4638 61.5931C62.3501 60.6228 63.4989 59.8775 64.91 59.357C64.0687 58.5218 63.4666 57.5776 63.1035 56.5245C62.7671 55.4761 62.7027 54.3657 62.9104 53.1934C63.1982 51.5682 63.917 50.225 65.0668 49.1639C66.2212 48.0761 67.6968 47.3472 69.4935 46.9771C71.3169 46.6118 73.3211 46.6217 75.5061 47.007C77.6911 47.3923 79.564 48.066 81.1248 49.028C82.7122 49.9948 83.8613 51.1866 84.5722 52.6032C85.2877 53.9933 85.5015 55.5009 85.2137 57.1261C85.006 58.2984 84.5508 59.3171 83.848 60.1823C83.1718 61.0522 82.2951 61.7356 81.2178 62.2325ZM74.5221 52.5621C73.5362 52.3882 72.6896 52.5137 71.9824 52.9385C71.2798 53.3367 70.846 54.002 70.6808 54.9345C70.5204 55.8404 70.686 56.6114 71.1779 57.2476C71.7011 57.8619 72.469 58.2583 73.4816 58.4369C74.4941 58.6154 75.3517 58.5056 76.0542 58.1075C76.7615 57.6827 77.1954 57.0173 77.3558 56.1115C77.521 55.179 77.342 54.4056 76.8187 53.7913C76.3003 53.1504 75.5347 52.7406 74.5221 52.5621ZM71.3367 70.5461C72.6158 70.7717 73.6826 70.6438 74.5372 70.1626C75.4233 69.6594 75.9606 68.875 76.1494 67.8092C76.3382 66.7435 76.1005 65.8361 75.4362 65.0871C74.8034 64.3161 73.8475 63.8178 72.5684 63.5923C71.2894 63.3668 70.2068 63.5056 69.3208 64.0088C68.4662 64.49 67.9445 65.2635 67.7557 66.3292C67.5669 67.3949 67.789 68.3133 68.4218 69.0843C69.086 69.8333 70.0577 70.3206 71.3367 70.5461Z" fill="white"/>
<path d="M57.4125 67.72L57.3019 68.3445L57.9264 68.4546L58.037 67.8301L57.4125 67.72ZM53.2556 66.987L53.3662 66.3626L52.7416 66.2525L52.631 66.8769L53.2556 66.987ZM52.307 72.3423L52.1964 72.9667L52.8209 73.0769L52.9316 72.4524L52.307 72.3423ZM44.5928 70.9821L43.9683 70.8719L43.8577 71.4964L44.4822 71.6065L44.5928 70.9821ZM45.5413 65.6268L46.1659 65.7369L46.2765 65.1125L45.652 65.0024L45.5413 65.6268ZM30.7524 63.0191L30.1279 62.909L30.0173 63.5335L30.6418 63.6436L30.7524 63.0191ZM31.6656 57.8637L31.2229 57.4099L31.0767 57.5525L31.0411 57.7536L31.6656 57.8637ZM47.3096 42.6122L47.4202 41.9877L47.0999 41.9313L46.867 42.1584L47.3096 42.6122ZM55.5035 44.057L55.9526 44.5043L56.8105 43.6435L55.6141 43.4325L55.5035 44.057ZM41.2168 58.3939L40.7676 57.9465L39.9098 58.8074L41.1062 59.0183L41.2168 58.3939ZM46.8925 59.3947L46.7819 60.0191L47.4065 60.1292L47.5171 59.5048L46.8925 59.3947ZM47.7349 54.6389L47.8455 54.0144L47.221 53.9043L47.1104 54.5287L47.7349 54.6389ZM55.2093 55.9568L55.8338 56.0669L55.9444 55.4425L55.3199 55.3324L55.2093 55.9568ZM54.3669 60.7126L53.7424 60.6025L53.6318 61.2269L54.2563 61.337L54.3669 60.7126ZM58.5238 61.4456L59.1484 61.5557L59.259 60.9312L58.6344 60.8211L58.5238 61.4456ZM57.5231 67.0956L53.3662 66.3626L53.145 67.6115L57.3019 68.3445L57.5231 67.0956ZM52.631 66.8769L51.6825 72.2322L52.9316 72.4524L53.8801 67.0972L52.631 66.8769ZM52.4176 71.7178L44.7034 70.3576L44.4822 71.6065L52.1964 72.9667L52.4176 71.7178ZM45.2173 71.0922L46.1659 65.7369L44.9168 65.5167L43.9683 70.8719L45.2173 71.0922ZM45.652 65.0024L30.863 62.3947L30.6418 63.6436L45.4307 66.2513L45.652 65.0024ZM31.377 63.1292L32.2901 57.9738L31.0411 57.7536L30.1279 62.909L31.377 63.1292ZM32.1082 58.3175L47.7522 43.066L46.867 42.1584L31.2229 57.4099L32.1082 58.3175ZM47.199 43.2366L55.3929 44.6814L55.6141 43.4325L47.4202 41.9877L47.199 43.2366ZM55.0543 43.6096L40.7676 57.9465L41.666 58.8412L55.9526 44.5043L55.0543 43.6096ZM41.1062 59.0183L46.7819 60.0191L47.0031 58.7702L41.3274 57.7694L41.1062 59.0183ZM47.5171 59.5048L48.3594 54.749L47.1104 54.5287L46.268 59.2845L47.5171 59.5048ZM47.6243 55.2633L55.0987 56.5813L55.3199 55.3324L47.8455 54.0144L47.6243 55.2633ZM54.5848 55.8467L53.7424 60.6025L54.9915 60.8227L55.8338 56.0669L54.5848 55.8467ZM54.2563 61.337L58.4132 62.07L58.6344 60.8211L54.4775 60.0881L54.2563 61.337ZM57.8993 61.3354L56.7879 67.6099L58.037 67.8301L59.1484 61.5557L57.8993 61.3354ZM81.2178 62.2325L80.9524 61.6568L80.0488 62.0737L80.8076 62.7164L81.2178 62.2325ZM83.6872 65.5116L84.2738 65.2702V65.2702L83.6872 65.5116ZM81.721 73.8196L81.2907 73.3541V73.3541L81.721 73.8196ZM76.8991 76.1428L77.0237 76.7644V76.7644L76.8991 76.1428ZM64.1886 73.9016L63.8581 74.443V74.443L64.1886 73.9016ZM60.4569 70.0702L61.0211 69.78V69.78L60.4569 70.0702ZM64.91 59.357L65.1292 59.9519L66.0628 59.6076L65.3571 58.9069L64.91 59.357ZM63.1035 56.5245L62.4994 56.7186L62.5039 56.7315L63.1035 56.5245ZM65.0668 49.1639L65.4968 49.6297L65.5016 49.6252L65.0668 49.1639ZM69.4935 46.9771L69.3693 46.3554L69.3659 46.3561L69.4935 46.9771ZM81.1248 49.028L80.7916 49.5679L80.7945 49.5696L81.1248 49.028ZM84.5721 52.6032L84.0052 52.8879L84.0082 52.8937L84.5721 52.6032ZM83.848 60.1823L83.3556 59.7827L83.3473 59.7935L83.848 60.1823ZM71.9824 52.9385L72.2948 53.4901L72.3018 53.4861L72.3087 53.482L71.9824 52.9385ZM71.1779 57.2476L70.6759 57.6356L70.6851 57.6475L70.6949 57.6589L71.1779 57.2476ZM76.0542 58.1075L76.3667 58.659L76.3737 58.6551L76.3806 58.6509L76.0542 58.1075ZM76.8187 53.7913L76.3255 54.1902L76.3305 54.1965L76.3357 54.2026L76.8187 53.7913ZM74.5372 70.1626L74.8482 70.715L74.8502 70.7139L74.5372 70.1626ZM75.4362 65.0871L74.9458 65.4895L74.9535 65.4989L74.9615 65.5079L75.4362 65.0871ZM69.3208 64.0088L69.6318 64.5612L69.6338 64.5601L69.3208 64.0088ZM68.4218 69.0843L67.9314 69.4867L67.9391 69.4961L67.9471 69.5051L68.4218 69.0843ZM80.8076 62.7164C81.8884 63.632 82.645 64.6451 83.1005 65.753L84.2738 65.2702C83.7307 63.9491 82.8411 62.7762 81.628 61.7486L80.8076 62.7164ZM83.1005 65.753C83.55 66.8462 83.6676 68.0365 83.4365 69.3414L84.6855 69.5617C84.9546 68.0424 84.823 66.6061 84.2738 65.2702L83.1005 65.753ZM83.4365 69.3414C83.1478 70.9708 82.432 72.2996 81.2907 73.3541L82.1513 74.2851C83.5071 73.0324 84.3512 71.4491 84.6855 69.5617L83.4365 69.3414ZM81.2907 73.3541C80.1421 74.4153 78.6471 75.1448 76.7746 75.5211L77.0237 76.7644C79.0833 76.3505 80.8028 75.5311 82.1513 74.2851L81.2907 73.3541ZM76.7746 75.5211C74.9007 75.8978 72.7999 75.8888 70.4634 75.4768L70.2422 76.7257C72.702 77.1594 74.9654 77.1781 77.0237 76.7644L76.7746 75.5211ZM70.4634 75.4768C68.1268 75.0648 66.1502 74.3548 64.5192 73.3602L63.8581 74.443C65.6495 75.5355 67.7823 76.2919 70.2422 76.7257L70.4634 75.4768ZM64.5192 73.3602C62.8894 72.3663 61.7355 71.1697 61.0211 69.78L59.8928 70.3604C60.7316 71.992 62.0655 73.3498 63.8581 74.443L64.5192 73.3602ZM61.0211 69.78C60.3112 68.3991 60.0951 66.906 60.3837 65.2766L59.1347 65.0564C58.8003 66.9438 59.0494 68.7199 59.8928 70.3604L61.0211 69.78ZM60.3837 65.2766C60.6149 63.9717 61.1342 62.8938 61.932 62.0205L60.9956 61.1656C60.0208 62.2328 59.4038 63.5371 59.1347 65.0564L60.3837 65.2766ZM61.932 62.0205C62.7406 61.1354 63.7993 60.4424 65.1292 59.9519L64.6909 58.7622C63.1984 59.3126 61.9597 60.1103 60.9956 61.1656L61.932 62.0205ZM65.3571 58.9069C64.5801 58.1355 64.0326 57.2732 63.7032 56.3175L62.5039 56.7315C62.9005 57.8821 63.5574 58.9081 64.463 59.8071L65.3571 58.9069ZM63.7075 56.3304C63.4051 55.388 63.3438 54.3827 63.5349 53.3036L62.2858 53.0833C62.0617 54.3488 62.1291 55.5641 62.4996 56.7186L63.7075 56.3304ZM63.5349 53.3036C63.8 51.8068 64.4549 50.5912 65.4968 49.6297L64.6367 48.6981C63.3791 49.8588 62.5965 51.3296 62.2858 53.0833L63.5349 53.3036ZM65.5016 49.6252C66.5577 48.6301 67.9212 47.9483 69.621 47.5982L69.3659 46.3561C67.4724 46.7461 65.8847 47.5222 64.6319 48.7026L65.5016 49.6252ZM69.6177 47.5988C71.3502 47.2517 73.2735 47.2573 75.3955 47.6314L75.6167 46.3826C73.3686 45.9862 71.2835 45.9718 69.3693 46.3554L69.6177 47.5988ZM75.3955 47.6314C77.5178 48.0057 79.3117 48.6556 80.7916 49.5678L81.4579 48.4882C79.8164 47.4763 77.8645 46.7789 75.6167 46.3826L75.3955 47.6314ZM80.7945 49.5696C82.2983 50.4855 83.3562 51.5945 84.0052 52.8879L85.1391 52.3186C84.3664 50.7786 83.1261 49.5042 81.455 48.4865L80.7945 49.5696ZM84.0082 52.8937C84.6566 54.1533 84.8543 55.5193 84.5891 57.016L85.8382 57.2362C86.1488 55.4825 85.9188 53.8332 85.1361 52.3127L84.0082 52.8937ZM84.5891 57.016C84.399 58.0897 83.986 59.007 83.3557 59.7828L84.3402 60.5818C85.1156 59.6273 85.6131 58.5072 85.8382 57.2362L84.5891 57.016ZM83.3473 59.7935C82.7382 60.5771 81.9447 61.1991 80.9524 61.6568L81.4832 62.8083C82.6455 62.2721 83.6054 61.5273 84.3487 60.5712L83.3473 59.7935ZM74.6328 51.9376C73.5299 51.7432 72.521 51.8755 71.656 52.395L72.3087 53.482C72.8582 53.1519 73.5426 53.0333 74.4115 53.1865L74.6328 51.9376ZM71.6699 52.3869C70.7734 52.895 70.2481 53.7415 70.0563 54.8244L71.3053 55.0446C71.4439 54.2625 71.7862 53.7783 72.2948 53.4901L71.6699 52.3869ZM70.0563 54.8244C69.8696 55.8783 70.0587 56.8371 70.6759 57.6356L71.6798 56.8597C71.3134 56.3857 71.1711 55.8024 71.3053 55.0446L70.0563 54.8244ZM70.6949 57.6589C71.3373 58.4132 72.2538 58.8643 73.371 59.0613L73.5922 57.8124C72.6842 57.6523 72.0649 57.3106 71.6609 56.8363L70.6949 57.6589ZM73.371 59.0613C74.4881 59.2583 75.5041 59.1479 76.3667 58.659L75.7418 57.5559C75.1993 57.8633 74.5002 57.9725 73.5922 57.8124L73.371 59.0613ZM76.3806 58.6509C77.2645 58.12 77.792 57.2848 77.9803 56.2216L76.7313 56.0013C76.5987 56.7498 76.2585 57.2453 75.7279 57.564L76.3806 58.6509ZM77.9803 56.2216C78.1721 55.1387 77.9694 54.1638 77.3018 53.38L76.3357 54.2026C76.7145 54.6473 76.8698 55.2192 76.7313 56.0013L77.9803 56.2216ZM77.312 53.3923C76.6754 52.6053 75.7575 52.1359 74.6328 51.9376L74.4115 53.1865C75.312 53.3453 75.9251 53.6954 76.3255 54.1902L77.312 53.3923ZM71.2261 71.1706C72.6025 71.4133 73.8292 71.2888 74.8482 70.715L74.2263 69.6102C73.536 69.9989 72.629 70.1301 71.4473 69.9217L71.2261 71.1706ZM74.8502 70.7139C75.912 70.1109 76.5546 69.1578 76.7739 67.9194L75.5249 67.6991C75.3667 68.5921 74.9345 69.208 74.2243 69.6113L74.8502 70.7139ZM76.7739 67.9194C76.9933 66.6807 76.715 65.573 75.911 64.6663L74.9615 65.5079C75.4859 66.0993 75.683 66.8064 75.5249 67.6991L76.7739 67.9194ZM75.9267 64.6846C75.1719 63.7652 74.0613 63.2116 72.679 62.9679L72.4578 64.2168C73.6336 64.4241 74.4349 64.867 74.9458 65.4895L75.9267 64.6846ZM72.679 62.9679C71.2954 62.7239 70.0542 62.8632 69.0079 63.4575L69.6338 64.5601C70.3594 64.148 71.2833 64.0097 72.4578 64.2168L72.679 62.9679ZM69.0099 63.4563C67.9712 64.0412 67.3491 64.9885 67.1312 66.2191L68.3802 66.4393C68.5398 65.5385 68.9611 64.9388 69.6318 64.5612L69.0099 63.4563ZM67.1312 66.2191C66.9132 67.4496 67.1703 68.5595 67.9314 69.4867L68.9122 68.6818C68.4076 68.067 68.2207 67.3402 68.3802 66.4393L67.1312 66.2191ZM67.9471 69.5051C68.7312 70.3893 69.8484 70.9277 71.2261 71.1706L71.4473 69.9217C70.267 69.7136 69.4409 69.2773 68.8966 68.6635L67.9471 69.5051Z" fill="#202027" mask="url(#path-2-outside-1_18933_321)"/>
</svg>
