<svg width="33" height="118" viewBox="0 0 33 118" fill="none" xmlns="http://www.w3.org/2000/svg">
<rect x="0.202599" y="0.28958" width="100.967" height="100.967" rx="18.775" transform="matrix(0.984808 0.173648 -0.174411 0.984673 -67.7511 -0.0307426)" fill="#D9B6FF"/>
<rect x="0.202599" y="0.28958" width="100.967" height="100.967" rx="18.775" transform="matrix(0.984808 0.173648 -0.174411 0.984673 -67.7511 -0.0307426)" stroke="#202027" stroke-width="0.5"/>
<mask id="path-2-outside-1_18933_325" maskUnits="userSpaceOnUse" x="-55.6658" y="38.9014" width="57.776" height="40.7129" fill="black">
<rect fill="white" x="-55.6658" y="38.9014" width="57.776" height="40.7129"/>
<path d="M-36.3513 53.4048C-34.5926 53.7149 -33.0466 54.3722 -31.7131 55.3766C-30.375 56.3544 -29.3999 57.5979 -28.7879 59.107C-28.1445 60.5942 -27.9762 62.2037 -28.2829 63.9355C-28.618 65.8272 -29.4082 67.4188 -30.6537 68.7103C-31.8678 69.9799 -33.3851 70.8663 -35.2054 71.3696C-36.9943 71.8509 -38.9147 71.9107 -40.9665 71.5489C-44.9635 70.8441 -47.9111 69.1017 -49.8094 66.3217C-51.7077 63.5417 -52.2627 59.927 -51.4746 55.4776C-50.9083 52.2805 -49.8094 49.6443 -48.1778 47.5691C-46.5148 45.472 -44.458 44.0213 -42.0073 43.2171C-39.5566 42.4128 -36.8524 42.2715 -33.8946 42.793C-32.2958 43.0749 -30.8076 43.5159 -29.43 44.116C-28.0525 44.7161 -26.9164 45.4384 -26.0218 46.283L-29.9048 51.4506C-31.0939 50.2518 -32.7277 49.4692 -34.8061 49.1027C-36.8313 48.7456 -38.5691 49.0161 -40.0197 49.9143C-41.4703 50.8125 -42.4753 52.2975 -43.0347 54.3694C-41.1905 53.2659 -38.9627 52.9444 -36.3513 53.4048ZM-40.448 65.8293C-39.3289 66.0267 -38.3663 65.8667 -37.5602 65.3494C-36.7275 64.8369 -36.2144 64.0344 -36.0209 62.942C-35.8321 61.8763 -36.0408 60.9603 -36.647 60.194C-37.2266 59.4324 -38.0893 58.9506 -39.2351 58.7486C-40.3809 58.5465 -41.3725 58.7151 -42.2099 59.2543C-43.0427 59.7669 -43.5534 60.556 -43.7422 61.6218C-43.9262 62.6609 -43.7308 63.5745 -43.156 64.3627C-42.5498 65.129 -41.6471 65.6179 -40.448 65.8293ZM-10.3942 57.9818C-8.63549 58.2919 -7.08943 58.9491 -5.756 59.9536C-4.41785 60.9313 -3.44277 62.1748 -2.83075 63.684C-2.18737 65.1712 -2.01905 66.7807 -2.32579 68.5125C-2.66086 70.4041 -3.45113 71.9957 -4.69661 73.2872C-5.91073 74.5568 -7.42794 75.4432 -9.24826 75.9465C-11.0372 76.4279 -12.9576 76.4876 -15.0094 76.1259C-19.0064 75.4211 -21.954 73.6787 -23.8523 70.8987C-25.7505 68.1187 -26.3056 64.504 -25.5175 60.0546C-24.9512 56.8574 -23.8523 54.2213 -22.2207 52.1461C-20.5577 50.049 -18.5009 48.5983 -16.0502 47.794C-13.5995 46.9898 -10.8953 46.8484 -7.93749 47.3699C-6.33869 47.6518 -4.8505 48.0928 -3.47292 48.6929C-2.09535 49.293 -0.959268 50.0154 -0.0646705 50.86L-3.9477 56.0275C-5.13679 54.8287 -6.77056 54.0461 -8.849 53.6796C-10.8742 53.3225 -12.612 53.5931 -14.0626 54.4912C-15.5132 55.3894 -16.5182 56.8745 -17.0775 58.9464C-15.2333 57.8429 -13.0056 57.5213 -10.3942 57.9818ZM-14.4909 70.4063C-13.3718 70.6036 -12.4091 70.4437 -11.6031 69.9264C-10.7703 69.4138 -10.2572 68.6113 -10.0638 67.519C-9.87499 66.4533 -10.0837 65.5372 -10.6899 64.7709C-11.2695 64.0094 -12.1321 63.5275 -13.278 63.3255C-14.4238 63.1235 -15.4154 63.2921 -16.2528 63.8313C-17.0855 64.3438 -17.5963 65.133 -17.7851 66.1987C-17.9691 67.2378 -17.7737 68.1515 -17.1989 68.9397C-16.5927 69.706 -15.69 70.1948 -14.4909 70.4063Z"/>
</mask>
<path d="M-36.3513 53.4048C-34.5926 53.7149 -33.0466 54.3722 -31.7131 55.3766C-30.375 56.3544 -29.3999 57.5979 -28.7879 59.107C-28.1445 60.5942 -27.9762 62.2037 -28.2829 63.9355C-28.618 65.8272 -29.4082 67.4188 -30.6537 68.7103C-31.8678 69.9799 -33.3851 70.8663 -35.2054 71.3696C-36.9943 71.8509 -38.9147 71.9107 -40.9665 71.5489C-44.9635 70.8441 -47.9111 69.1017 -49.8094 66.3217C-51.7077 63.5417 -52.2627 59.927 -51.4746 55.4776C-50.9083 52.2805 -49.8094 49.6443 -48.1778 47.5691C-46.5148 45.472 -44.458 44.0213 -42.0073 43.2171C-39.5566 42.4128 -36.8524 42.2715 -33.8946 42.793C-32.2958 43.0749 -30.8076 43.5159 -29.43 44.116C-28.0525 44.7161 -26.9164 45.4384 -26.0218 46.283L-29.9048 51.4506C-31.0939 50.2518 -32.7277 49.4692 -34.8061 49.1027C-36.8313 48.7456 -38.5691 49.0161 -40.0197 49.9143C-41.4703 50.8125 -42.4753 52.2975 -43.0347 54.3694C-41.1905 53.2659 -38.9627 52.9444 -36.3513 53.4048ZM-40.448 65.8293C-39.3289 66.0267 -38.3663 65.8667 -37.5602 65.3494C-36.7275 64.8369 -36.2144 64.0344 -36.0209 62.942C-35.8321 61.8763 -36.0408 60.9603 -36.647 60.194C-37.2266 59.4324 -38.0893 58.9506 -39.2351 58.7486C-40.3809 58.5465 -41.3725 58.7151 -42.2099 59.2543C-43.0427 59.7669 -43.5534 60.556 -43.7422 61.6218C-43.9262 62.6609 -43.7308 63.5745 -43.156 64.3627C-42.5498 65.129 -41.6471 65.6179 -40.448 65.8293ZM-10.3942 57.9818C-8.63549 58.2919 -7.08943 58.9491 -5.756 59.9536C-4.41785 60.9313 -3.44277 62.1748 -2.83075 63.684C-2.18737 65.1712 -2.01905 66.7807 -2.32579 68.5125C-2.66086 70.4041 -3.45113 71.9957 -4.69661 73.2872C-5.91073 74.5568 -7.42794 75.4432 -9.24826 75.9465C-11.0372 76.4279 -12.9576 76.4876 -15.0094 76.1259C-19.0064 75.4211 -21.954 73.6787 -23.8523 70.8987C-25.7505 68.1187 -26.3056 64.504 -25.5175 60.0546C-24.9512 56.8574 -23.8523 54.2213 -22.2207 52.1461C-20.5577 50.049 -18.5009 48.5983 -16.0502 47.794C-13.5995 46.9898 -10.8953 46.8484 -7.93749 47.3699C-6.33869 47.6518 -4.8505 48.0928 -3.47292 48.6929C-2.09535 49.293 -0.959268 50.0154 -0.0646705 50.86L-3.9477 56.0275C-5.13679 54.8287 -6.77056 54.0461 -8.849 53.6796C-10.8742 53.3225 -12.612 53.5931 -14.0626 54.4912C-15.5132 55.3894 -16.5182 56.8745 -17.0775 58.9464C-15.2333 57.8429 -13.0056 57.5213 -10.3942 57.9818ZM-14.4909 70.4063C-13.3718 70.6036 -12.4091 70.4437 -11.6031 69.9264C-10.7703 69.4138 -10.2572 68.6113 -10.0638 67.519C-9.87499 66.4533 -10.0837 65.5372 -10.6899 64.7709C-11.2695 64.0094 -12.1321 63.5275 -13.278 63.3255C-14.4238 63.1235 -15.4154 63.2921 -16.2528 63.8313C-17.0855 64.3438 -17.5963 65.133 -17.7851 66.1987C-17.9691 67.2378 -17.7737 68.1515 -17.1989 68.9397C-16.5927 69.706 -15.69 70.1948 -14.4909 70.4063Z" fill="white"/>
<path d="M-31.7131 55.3766L-32.0951 55.8832L-32.0876 55.8886L-31.7131 55.3766ZM-28.7879 59.107L-29.3757 59.3456L-29.3729 59.3524L-29.37 59.3591L-28.7879 59.107ZM-30.6537 68.7103L-31.1102 68.2704L-31.112 68.2723L-30.6537 68.7103ZM-35.2054 71.3696L-35.041 71.9819L-35.0367 71.9807L-35.2054 71.3696ZM-49.8094 66.3217L-49.2855 65.964V65.964L-49.8094 66.3217ZM-48.1778 47.5691L-48.6747 47.1754L-48.6763 47.1775L-48.1778 47.5691ZM-29.43 44.116L-29.1763 43.5347V43.5347L-29.43 44.116ZM-26.0218 46.283L-25.5148 46.6636L-25.1744 46.2106L-25.5861 45.8219L-26.0218 46.283ZM-29.9048 51.4506L-30.3553 51.8972L-29.8388 52.418L-29.3978 51.8312L-29.9048 51.4506ZM-40.0197 49.9143L-40.3534 49.3753V49.3753L-40.0197 49.9143ZM-43.0347 54.3694L-43.647 54.2046L-44.0559 55.7193L-42.7092 54.9134L-43.0347 54.3694ZM-37.5602 65.3494L-37.8925 64.8095L-37.9025 64.8159L-37.5602 65.3494ZM-36.647 60.194L-37.152 60.5782L-37.1446 60.5876L-36.647 60.194ZM-42.2099 59.2543L-41.8776 59.7943L-41.8668 59.7873L-42.2099 59.2543ZM-43.156 64.3627L-43.6686 64.7365L-43.6613 64.7466L-43.6536 64.7563L-43.156 64.3627ZM-36.4619 54.0293C-34.7947 54.3233 -33.3431 54.943 -32.095 55.8831L-31.3312 54.8701C-32.75 53.8014 -34.3905 53.1066 -36.2407 52.7804L-36.4619 54.0293ZM-32.0876 55.8886C-30.8429 56.7982 -29.9426 57.9477 -29.3757 59.3456L-28.2001 58.8684C-28.8572 57.248 -29.9071 55.9106 -31.3386 54.8646L-32.0876 55.8886ZM-29.37 59.3591C-28.7802 60.7226 -28.6204 62.205 -28.9074 63.8254L-27.6584 64.0457C-27.3319 62.2024 -27.5088 60.4658 -28.2057 58.855L-29.37 59.3591ZM-28.9074 63.8254C-29.2222 65.6022 -29.9586 67.0762 -31.1102 68.2704L-30.1973 69.1502C-28.8579 67.7613 -28.0138 66.0522 -27.6584 64.0457L-28.9074 63.8254ZM-31.112 68.2723C-32.241 69.4529 -33.6555 70.2833 -35.374 70.7585L-35.0367 71.9807C-33.1146 71.4493 -31.4947 70.5069 -30.1954 69.1483L-31.112 68.2723ZM-35.3698 70.7573C-37.0584 71.2117 -38.8841 71.2722 -40.8559 70.9245L-41.0771 72.1734C-38.9453 72.5493 -36.9302 72.4902 -35.041 71.9819L-35.3698 70.7573ZM-40.8559 70.9245C-44.7218 70.2428 -47.5027 68.5748 -49.2855 65.964L-50.3333 66.6795C-48.3195 69.6287 -45.2052 71.4455 -41.0771 72.1734L-40.8559 70.9245ZM-49.2855 65.964C-51.062 63.3623 -51.6195 59.9313 -50.8501 55.5878L-52.0992 55.3675C-52.906 59.9228 -52.3533 63.7212 -50.3333 66.6795L-49.2855 65.964ZM-50.8501 55.5878C-50.2979 52.47 -49.2331 49.9371 -47.6793 47.9608L-48.6763 47.1775C-50.3857 49.3516 -51.5188 52.091 -52.0992 55.3675L-50.8501 55.5878ZM-47.6809 47.9628C-46.0921 45.9592 -44.1379 44.5835 -41.8099 43.8195L-42.2047 42.6146C-44.7781 43.4592 -46.9376 44.9848 -48.6747 47.1755L-47.6809 47.9628ZM-41.8099 43.8195C-39.4737 43.0528 -36.8771 42.911 -34.0052 43.4174L-33.784 42.1685C-36.8277 41.6319 -39.6395 41.7728 -42.2047 42.6146L-41.8099 43.8195ZM-34.0052 43.4174C-32.4517 43.6914 -31.012 44.1187 -29.6838 44.6973L-29.1763 43.5347C-30.6032 42.9131 -32.1399 42.4584 -33.784 42.1685L-34.0052 43.4174ZM-29.6838 44.6973C-28.359 45.2744 -27.2885 45.9596 -26.4574 46.7442L-25.5861 45.8219C-26.5443 44.9173 -27.746 44.1577 -29.1763 43.5347L-29.6838 44.6973ZM-26.5288 45.9024L-30.4118 51.0699L-29.3978 51.8312L-25.5148 46.6636L-26.5288 45.9024ZM-29.4543 51.0039C-30.7563 49.6913 -32.5205 48.8617 -34.6955 48.4782L-34.9167 49.7271C-32.9348 50.0766 -31.4315 50.8123 -30.3553 51.8972L-29.4543 51.0039ZM-34.6955 48.4782C-36.841 48.0999 -38.7441 48.3789 -40.3534 49.3753L-39.6861 50.4533C-38.3942 49.6534 -36.8215 49.3912 -34.9167 49.7271L-34.6955 48.4782ZM-40.3534 49.3753C-41.974 50.3787 -43.057 52.0191 -43.647 54.2046L-42.4223 54.5342C-41.8937 52.576 -40.9667 51.2462 -39.6861 50.4533L-40.3534 49.3753ZM-42.7092 54.9134C-41.0247 53.9055 -38.9596 53.5889 -36.4619 54.0293L-36.2407 52.7804C-38.9658 52.2999 -41.3562 52.6264 -43.3601 53.8254L-42.7092 54.9134ZM-40.5586 66.4538C-39.3136 66.6733 -38.1826 66.5021 -37.2179 65.883L-37.9025 64.8159C-38.5499 65.2313 -39.3441 65.38 -40.3374 65.2049L-40.5586 66.4538ZM-37.2279 65.8893C-36.2192 65.2684 -35.6167 64.2962 -35.3963 63.0522L-36.6454 62.8319C-36.812 63.7726 -37.2357 64.4053 -37.8924 64.8096L-37.2279 65.8893ZM-35.3963 63.0522C-35.1798 61.8295 -35.4181 60.7249 -36.1494 59.8005L-37.1446 60.5876C-36.6636 61.1957 -36.4844 61.9232 -36.6454 62.8319L-35.3963 63.0522ZM-36.1421 59.8099C-36.8381 58.8954 -37.8572 58.3476 -39.1245 58.1241L-39.3457 59.373C-38.3213 59.5536 -37.6151 59.9695 -37.1519 60.5782L-36.1421 59.8099ZM-39.1245 58.1241C-40.3993 57.8993 -41.5589 58.0812 -42.5531 58.7213L-41.8668 59.7873C-41.1861 59.349 -40.3624 59.1937 -39.3457 59.373L-39.1245 58.1241ZM-42.5422 58.7144C-43.5468 59.3328 -44.1501 60.2889 -44.3667 61.5116L-43.1176 61.7319C-42.9567 60.8231 -42.5385 60.201 -41.8777 59.7942L-42.5422 58.7144ZM-44.3667 61.5116C-44.5781 62.7053 -44.3539 63.7969 -43.6686 64.7365L-42.6434 63.989C-43.1078 63.3521 -43.2743 62.6164 -43.1176 61.7319L-44.3667 61.5116ZM-43.6536 64.7563C-42.929 65.6722 -41.8717 66.2223 -40.5586 66.4538L-40.3374 65.2049C-41.4226 65.0135 -42.1706 64.5859 -42.6584 63.9692L-43.6536 64.7563ZM-5.756 59.9536L-6.13795 60.4601L-6.1305 60.4656L-5.756 59.9536ZM-2.83075 63.684L-3.41856 63.9226L-3.41581 63.9293L-3.41292 63.936L-2.83075 63.684ZM-4.69661 73.2872L-5.15306 72.8473L-5.1549 72.8492L-4.69661 73.2872ZM-9.24826 75.9465L-9.08384 76.5588L-9.07962 76.5577L-9.24826 75.9465ZM-23.8523 70.8987L-23.3284 70.5409V70.5409L-23.8523 70.8987ZM-22.2207 52.1461L-22.7176 51.7524L-22.7192 51.7545L-22.2207 52.1461ZM-3.47292 48.6929L-3.21922 48.1116V48.1116L-3.47292 48.6929ZM-0.0646695 50.86L0.442331 51.2406L0.782738 50.7876L0.370982 50.3988L-0.0646695 50.86ZM-3.9477 56.0275L-4.39822 56.4742L-3.88165 56.9949L-3.4407 56.4081L-3.9477 56.0275ZM-14.0626 54.4912L-14.3963 53.9522V53.9522L-14.0626 54.4912ZM-17.0775 58.9464L-17.6899 58.7816L-18.0988 60.2962L-16.7521 59.4904L-17.0775 58.9464ZM-11.6031 69.9264L-11.9354 69.3864L-11.9454 69.3928L-11.6031 69.9264ZM-10.6899 64.7709L-11.1949 65.1552L-11.1875 65.1645L-10.6899 64.7709ZM-16.2528 63.8313L-15.9205 64.3713L-15.9097 64.3643L-16.2528 63.8313ZM-17.1989 68.9397L-17.7115 69.3135L-17.7042 69.3235L-17.6965 69.3332L-17.1989 68.9397ZM-10.5048 58.6062C-8.83758 58.9002 -7.386 59.52 -6.13791 60.4601L-5.3741 59.447C-6.79287 58.3783 -8.4334 57.6836 -10.2836 57.3573L-10.5048 58.6062ZM-6.1305 60.4656C-4.88573 61.3751 -3.98547 62.5246 -3.41856 63.9226L-2.24295 63.4454C-2.90006 61.825 -3.94997 60.4876 -5.3815 59.4415L-6.1305 60.4656ZM-3.41292 63.936C-2.82303 65.2996 -2.66332 66.782 -2.95033 68.4023L-1.70126 68.6226C-1.37478 66.7794 -1.5517 65.0428 -2.24858 63.4319L-3.41292 63.936ZM-2.95033 68.4023C-3.26504 70.1791 -4.00146 71.6532 -5.15306 72.8473L-4.24016 73.7272C-2.90079 72.3383 -2.05667 70.6291 -1.70126 68.6226L-2.95033 68.4023ZM-5.1549 72.8492C-6.2839 74.0298 -7.69838 74.8603 -9.41691 75.3354L-9.07962 76.5577C-7.15751 76.0262 -5.53755 75.0838 -4.23832 73.7252L-5.1549 72.8492ZM-9.41268 75.3342C-11.1013 75.7886 -12.9269 75.8491 -14.8988 75.5014L-15.12 76.7503C-12.9882 77.1262 -10.9731 77.0671 -9.08384 76.5588L-9.41268 75.3342ZM-14.8988 75.5014C-18.7647 74.8198 -21.5456 73.1518 -23.3284 70.5409L-24.3762 71.2564C-22.3624 74.2056 -19.2481 76.0224 -15.12 76.7503L-14.8988 75.5014ZM-23.3284 70.5409C-25.1049 67.9392 -25.6623 64.5082 -24.893 60.1647L-26.142 59.9445C-26.9489 64.4997 -26.3962 68.2982 -24.3762 71.2564L-23.3284 70.5409ZM-24.893 60.1647C-24.3407 57.0469 -23.276 54.514 -21.7221 52.5377L-22.7192 51.7545C-24.4285 53.9285 -25.5617 56.6679 -26.142 59.9445L-24.893 60.1647ZM-21.7238 52.5398C-20.135 50.5362 -18.1807 49.1604 -15.8528 48.3965L-16.2476 47.1916C-18.821 48.0361 -20.9805 49.5618 -22.7176 51.7524L-21.7238 52.5398ZM-15.8528 48.3965C-13.5166 47.6298 -10.92 47.488 -8.04809 47.9944L-7.82688 46.7455C-10.8705 46.2088 -13.6824 46.3497 -16.2476 47.1916L-15.8528 48.3965ZM-8.04809 47.9944C-6.49462 48.2683 -5.05487 48.6957 -3.72663 49.2742L-3.21922 48.1116C-4.64612 47.49 -6.18275 47.0354 -7.82688 46.7455L-8.04809 47.9944ZM-3.72663 49.2742C-2.40185 49.8513 -1.33138 50.5365 -0.500325 51.3211L0.370982 50.3988C-0.587155 49.4942 -1.78885 48.7347 -3.21922 48.1116L-3.72663 49.2742ZM-0.57167 50.4794L-4.4547 55.6469L-3.4407 56.4081L0.442331 51.2406L-0.57167 50.4794ZM-3.49718 55.5809C-4.79922 54.2682 -6.56341 53.4387 -8.7384 53.0552L-8.95961 54.3041C-6.9777 54.6535 -5.47436 55.3892 -4.39822 56.4742L-3.49718 55.5809ZM-8.7384 53.0552C-10.8839 52.6769 -12.787 52.9558 -14.3963 53.9522L-13.729 55.0302C-12.4371 54.2303 -10.8644 53.9682 -8.95961 54.3041L-8.7384 53.0552ZM-14.3963 53.9522C-16.0169 54.9557 -17.0999 56.596 -17.6899 58.7816L-16.4652 59.1112C-15.9365 57.1529 -15.0096 55.8232 -13.729 55.0302L-14.3963 53.9522ZM-16.7521 59.4904C-15.0676 58.4824 -13.0025 58.1658 -10.5048 58.6062L-10.2836 57.3573C-13.0086 56.8768 -15.3991 57.2033 -17.403 58.4024L-16.7521 59.4904ZM-14.6015 71.0307C-13.3565 71.2503 -12.2255 71.079 -11.2607 70.4599L-11.9454 69.3928C-12.5928 69.8083 -13.387 69.957 -14.3803 69.7818L-14.6015 71.0307ZM-11.2708 70.4663C-10.2621 69.8453 -9.65957 68.8731 -9.43922 67.6291L-10.6883 67.4089C-10.8549 68.3496 -11.2786 68.9823 -11.9353 69.3865L-11.2708 70.4663ZM-9.43922 67.6291C-9.22265 66.4064 -9.46098 65.3019 -10.1923 64.3774L-11.1875 65.1645C-10.7064 65.7726 -10.5273 66.5001 -10.6883 67.4089L-9.43922 67.6291ZM-10.185 64.3868C-10.8809 63.4723 -11.9001 62.9245 -13.1673 62.7011L-13.3886 63.9499C-12.3642 64.1306 -11.658 64.5464 -11.1948 65.1551L-10.185 64.3868ZM-13.1673 62.7011C-14.4422 62.4763 -15.6018 62.6581 -16.596 63.2983L-15.9097 64.3643C-15.229 63.926 -14.4053 63.7707 -13.3886 63.9499L-13.1673 62.7011ZM-16.5851 63.2914C-17.5897 63.9098 -18.193 64.8659 -18.4096 66.0886L-17.1605 66.3088C-16.9996 65.4001 -16.5814 64.7779 -15.9206 64.3711L-16.5851 63.2914ZM-18.4096 66.0886C-18.621 67.2822 -18.3967 68.3738 -17.7115 69.3135L-16.6863 68.5659C-17.1507 67.9291 -17.3172 67.1934 -17.1605 66.3088L-18.4096 66.0886ZM-17.6965 69.3332C-16.9719 70.2492 -15.9145 70.7992 -14.6015 71.0307L-14.3803 69.7818C-15.4655 69.5905 -16.2135 69.1628 -16.7013 68.5461L-17.6965 69.3332Z" fill="#202027" mask="url(#path-2-outside-1_18933_325)"/>
</svg>
