<svg width="118" height="118" viewBox="0 0 118 118" fill="none" xmlns="http://www.w3.org/2000/svg">
<rect x="0.202599" y="0.28958" width="100.967" height="100.967" rx="18.775" transform="matrix(0.984808 0.173648 -0.174411 0.984673 17.7505 -0.0307426)" fill="#D9B6FF"/>
<rect x="0.202599" y="0.28958" width="100.967" height="100.967" rx="18.775" transform="matrix(0.984808 0.173648 -0.174411 0.984673 17.7505 -0.0307426)" stroke="#202027" stroke-width="0.5"/>
<mask id="path-2-outside-1_18933_337" maskUnits="userSpaceOnUse" x="41.8281" y="40.9851" width="34.951" height="35.7343" fill="black">
<rect fill="white" x="41.8281" y="40.9851" width="34.951" height="35.7343"/>
<path d="M70.9765 70.1117L66.8196 69.3787L65.8711 74.734L58.1569 73.3738L59.1054 68.0185L44.3165 65.4108L45.2297 60.2554L60.8737 45.0039L69.0675 46.4487L54.7809 60.7856L60.4566 61.7864L61.299 57.0306L68.7734 58.3485L67.931 63.1043L72.0879 63.8373L70.9765 70.1117Z"/>
</mask>
<path d="M70.9765 70.1117L66.8196 69.3787L65.8711 74.734L58.1569 73.3738L59.1054 68.0185L44.3165 65.4108L45.2297 60.2554L60.8737 45.0039L69.0675 46.4487L54.7809 60.7856L60.4566 61.7864L61.299 57.0306L68.7734 58.3485L67.931 63.1043L72.0879 63.8373L70.9765 70.1117Z" fill="white"/>
<path d="M70.9765 70.1117L70.8659 70.7362L71.4905 70.8463L71.6011 70.2218L70.9765 70.1117ZM66.8196 69.3787L66.9303 68.7543L66.3057 68.6442L66.1951 69.2686L66.8196 69.3787ZM65.8711 74.734L65.7605 75.3584L66.385 75.4686L66.4956 74.8441L65.8711 74.734ZM58.1569 73.3738L57.5323 73.2636L57.4217 73.8881L58.0463 73.9982L58.1569 73.3738ZM59.1054 68.0185L59.73 68.1286L59.8406 67.5042L59.216 67.3941L59.1054 68.0185ZM44.3165 65.4108L43.692 65.3007L43.5814 65.9251L44.2059 66.0353L44.3165 65.4108ZM45.2297 60.2554L44.787 59.8016L44.6407 59.9442L44.6051 60.1453L45.2297 60.2554ZM60.8737 45.0039L60.9843 44.3794L60.664 44.3229L60.431 44.5501L60.8737 45.0039ZM69.0675 46.4487L69.5167 46.896L70.3745 46.0352L69.1781 45.8242L69.0675 46.4487ZM54.7809 60.7856L54.3317 60.3382L53.4739 61.1991L54.6703 61.41L54.7809 60.7856ZM60.4566 61.7864L60.346 62.4108L60.9705 62.5209L61.0811 61.8965L60.4566 61.7864ZM61.299 57.0306L61.4096 56.4061L60.7851 56.296L60.6745 56.9204L61.299 57.0306ZM68.7734 58.3485L69.3979 58.4586L69.5085 57.8342L68.884 57.7241L68.7734 58.3485ZM67.931 63.1043L67.3065 62.9942L67.1959 63.6186L67.8204 63.7287L67.931 63.1043ZM72.0879 63.8373L72.7124 63.9474L72.823 63.3229L72.1985 63.2128L72.0879 63.8373ZM71.0871 69.4873L66.9303 68.7543L66.709 70.0032L70.8659 70.7362L71.0871 69.4873ZM66.1951 69.2686L65.2466 74.6239L66.4956 74.8441L67.4442 69.4889L66.1951 69.2686ZM65.9817 74.1095L58.2675 72.7493L58.0463 73.9982L65.7605 75.3584L65.9817 74.1095ZM58.7814 73.4839L59.73 68.1286L58.4809 67.9084L57.5323 73.2636L58.7814 73.4839ZM59.216 67.3941L44.4271 64.7864L44.2059 66.0353L58.9948 68.643L59.216 67.3941ZM44.941 65.5209L45.8542 60.3655L44.6051 60.1453L43.692 65.3007L44.941 65.5209ZM45.6723 60.7092L61.3163 45.4577L60.431 44.5501L44.787 59.8016L45.6723 60.7092ZM60.7631 45.6283L68.9569 47.0731L69.1781 45.8242L60.9843 44.3794L60.7631 45.6283ZM68.6184 46.0013L54.3317 60.3382L55.23 61.2329L69.5167 46.896L68.6184 46.0013ZM54.6703 61.41L60.346 62.4108L60.5672 61.1619L54.8915 60.1611L54.6703 61.41ZM61.0811 61.8965L61.9235 57.1407L60.6745 56.9204L59.8321 61.6762L61.0811 61.8965ZM61.1884 57.655L68.6628 58.973L68.884 57.7241L61.4096 56.4061L61.1884 57.655ZM68.1489 58.2384L67.3065 62.9942L68.5555 63.2144L69.3979 58.4586L68.1489 58.2384ZM67.8204 63.7287L71.9773 64.4617L72.1985 63.2128L68.0416 62.4798L67.8204 63.7287ZM71.4634 63.7271L70.352 70.0016L71.6011 70.2218L72.7124 63.9474L71.4634 63.7271Z" fill="#202027" mask="url(#path-2-outside-1_18933_337)"/>
</svg>
