<svg width="118" height="118" viewBox="0 0 118 118" fill="none" xmlns="http://www.w3.org/2000/svg">
<rect x="0.202599" y="0.28958" width="100.967" height="100.967" rx="18.775" transform="matrix(0.984808 0.173648 -0.174411 0.984673 17.7505 -0.0307426)" fill="#D9B6FF"/>
<rect x="0.202599" y="0.28958" width="100.967" height="100.967" rx="18.775" transform="matrix(0.984808 0.173648 -0.174411 0.984673 17.7505 -0.0307426)" stroke="#202027" stroke-width="0.5"/>
<mask id="path-2-outside-1_18933_331" maskUnits="userSpaceOnUse" x="43.1306" y="41.2457" width="31.1861" height="36.0244" fill="black">
<rect fill="white" x="43.1306" y="41.2457" width="31.1861" height="36.0244"/>
<path d="M67.029 59.7308C68.1759 60.7023 68.9991 61.7953 69.4984 63.0099C69.9977 64.2244 70.1223 65.5377 69.8722 66.9498C69.5607 68.7082 68.7807 70.1643 67.5322 71.3179C66.2837 72.4715 64.6764 73.2459 62.7103 73.641C60.7443 74.0362 58.5622 74.0223 56.164 73.5995C53.7658 73.1766 51.7111 72.4434 49.9999 71.3998C48.2887 70.3563 47.0447 69.0791 46.2681 67.5684C45.4915 66.0577 45.2589 64.4232 45.5704 62.6647C45.8205 61.2526 46.3887 60.0615 47.275 59.0913C48.1613 58.1211 49.3101 57.3758 50.7212 56.8553C49.8799 56.0201 49.2778 55.0759 48.9147 54.0228C48.5783 52.9743 48.5139 51.864 48.7216 50.6917C49.0095 49.0665 49.7283 47.7233 50.878 46.6621C52.0324 45.5744 53.508 44.8454 55.3047 44.4754C57.1281 44.11 59.1323 44.12 61.3173 44.5052C63.5023 44.8905 65.3752 45.5642 66.936 46.5263C68.5234 47.4931 69.6725 48.6848 70.3834 50.1015C71.0989 51.4915 71.3128 52.9991 71.0249 54.6244C70.8172 55.7967 70.362 56.8154 69.6592 57.6806C68.983 58.5504 68.1063 59.2339 67.029 59.7308ZM60.3334 50.0603C59.3474 49.8865 58.5008 50.012 57.7936 50.4367C57.091 50.8349 56.6572 51.5002 56.492 52.4327C56.3316 53.3386 56.4973 54.1096 56.9891 54.7459C57.5123 55.3602 58.2802 55.7566 59.2928 55.9351C60.3054 56.1137 61.1629 56.0039 61.8655 55.6057C62.5727 55.1809 63.0066 54.5156 63.167 53.6097C63.3322 52.6772 63.1532 51.9038 62.63 51.2895C62.1115 50.6486 61.3459 50.2389 60.3334 50.0603ZM57.1479 68.0444C58.427 68.2699 59.4938 68.1421 60.3485 67.6608C61.2345 67.1577 61.7719 66.3732 61.9606 65.3075C62.1494 64.2418 61.9117 63.3344 61.2475 62.5853C60.6146 61.8143 59.6587 61.3161 58.3796 61.0906C57.1006 60.865 56.0181 61.0038 55.132 61.507C54.2774 61.9883 53.7557 62.7617 53.5669 63.8275C53.3781 64.8932 53.6002 65.8115 54.233 66.5825C54.8972 67.3316 55.8689 67.8189 57.1479 68.0444Z"/>
</mask>
<path d="M67.029 59.7308C68.1759 60.7023 68.9991 61.7953 69.4984 63.0099C69.9977 64.2244 70.1223 65.5377 69.8722 66.9498C69.5607 68.7082 68.7807 70.1643 67.5322 71.3179C66.2837 72.4715 64.6764 73.2459 62.7103 73.641C60.7443 74.0362 58.5622 74.0223 56.164 73.5995C53.7658 73.1766 51.7111 72.4434 49.9999 71.3998C48.2887 70.3563 47.0447 69.0791 46.2681 67.5684C45.4915 66.0577 45.2589 64.4232 45.5704 62.6647C45.8205 61.2526 46.3887 60.0615 47.275 59.0913C48.1613 58.1211 49.3101 57.3758 50.7212 56.8553C49.8799 56.0201 49.2778 55.0759 48.9147 54.0228C48.5783 52.9743 48.5139 51.864 48.7216 50.6917C49.0095 49.0665 49.7283 47.7233 50.878 46.6621C52.0324 45.5744 53.508 44.8454 55.3047 44.4754C57.1281 44.11 59.1323 44.12 61.3173 44.5052C63.5023 44.8905 65.3752 45.5642 66.936 46.5263C68.5234 47.4931 69.6725 48.6848 70.3834 50.1015C71.0989 51.4915 71.3128 52.9991 71.0249 54.6244C70.8172 55.7967 70.362 56.8154 69.6592 57.6806C68.983 58.5504 68.1063 59.2339 67.029 59.7308ZM60.3334 50.0603C59.3474 49.8865 58.5008 50.012 57.7936 50.4367C57.091 50.8349 56.6572 51.5002 56.492 52.4327C56.3316 53.3386 56.4973 54.1096 56.9891 54.7459C57.5123 55.3602 58.2802 55.7566 59.2928 55.9351C60.3054 56.1137 61.1629 56.0039 61.8655 55.6057C62.5727 55.1809 63.0066 54.5156 63.167 53.6097C63.3322 52.6772 63.1532 51.9038 62.63 51.2895C62.1115 50.6486 61.3459 50.2389 60.3334 50.0603ZM57.1479 68.0444C58.427 68.2699 59.4938 68.1421 60.3485 67.6608C61.2345 67.1577 61.7719 66.3732 61.9606 65.3075C62.1494 64.2418 61.9117 63.3344 61.2475 62.5853C60.6146 61.8143 59.6587 61.3161 58.3796 61.0906C57.1006 60.865 56.0181 61.0038 55.132 61.507C54.2774 61.9883 53.7557 62.7617 53.5669 63.8275C53.3781 64.8932 53.6002 65.8115 54.233 66.5825C54.8972 67.3316 55.8689 67.8189 57.1479 68.0444Z" fill="white"/>
<path d="M67.029 59.7308L66.7636 59.1551L65.86 59.5719L66.6188 60.2147L67.029 59.7308ZM69.4984 63.0099L70.085 62.7685V62.7685L69.4984 63.0099ZM67.5322 71.3179L67.1019 70.8524V70.8524L67.5322 71.3179ZM62.7103 73.641L62.8349 74.2627V74.2627L62.7103 73.641ZM49.9999 71.3998L49.6693 71.9412V71.9412L49.9999 71.3998ZM46.2681 67.5684L46.8323 67.2783V67.2783L46.2681 67.5684ZM50.7212 56.8553L50.9404 57.4501L51.874 57.1058L51.1683 56.4052L50.7212 56.8553ZM48.9147 54.0228L48.3106 54.2169L48.3151 54.2298L48.9147 54.0228ZM50.878 46.6621L51.308 47.1279L51.3128 47.1234L50.878 46.6621ZM55.3047 44.4754L55.1805 43.8537L55.1772 43.8543L55.3047 44.4754ZM66.936 46.5263L66.6028 47.0661L66.6057 47.0679L66.936 46.5263ZM70.3834 50.1015L69.8164 50.3861L69.8194 50.392L70.3834 50.1015ZM69.6592 57.6806L69.1668 57.281L69.1585 57.2917L69.6592 57.6806ZM57.7936 50.4367L58.1061 50.9883L58.113 50.9844L58.1199 50.9802L57.7936 50.4367ZM56.9891 54.7459L56.4872 55.1339L56.4963 55.1457L56.5061 55.1572L56.9891 54.7459ZM61.8655 55.6057L62.1779 56.1573L62.1849 56.1533L62.1918 56.1492L61.8655 55.6057ZM62.63 51.2895L62.1367 51.6885L62.1417 51.6947L62.1469 51.7008L62.63 51.2895ZM60.3485 67.6608L60.6594 68.2133L60.6614 68.2121L60.3485 67.6608ZM61.2475 62.5853L60.757 62.9878L60.7647 62.9971L60.7727 63.0062L61.2475 62.5853ZM55.132 61.507L55.443 62.0595L55.445 62.0583L55.132 61.507ZM54.233 66.5825L53.7426 66.985L53.7503 66.9943L53.7583 67.0033L54.233 66.5825ZM66.6188 60.2147C67.6996 61.1302 68.4562 62.1433 68.9117 63.2513L70.085 62.7685C69.5419 61.4474 68.6523 60.2744 67.4393 59.2469L66.6188 60.2147ZM68.9117 63.2513C69.3612 64.3445 69.4788 65.5347 69.2477 66.8397L70.4967 67.0599C70.7658 65.5407 70.6342 64.1043 70.085 62.7685L68.9117 63.2513ZM69.2477 66.8397C68.9591 68.4691 68.2432 69.7978 67.1019 70.8524L67.9625 71.7834C69.3183 70.5307 70.1624 68.9474 70.4967 67.0599L69.2477 66.8397ZM67.1019 70.8524C65.9533 71.9136 64.4583 72.643 62.5858 73.0194L62.8349 74.2627C64.8945 73.8487 66.614 73.0294 67.9625 71.7834L67.1019 70.8524ZM62.5858 73.0194C60.7119 73.396 58.6112 73.387 56.2746 72.975L56.0534 74.2239C58.5132 74.6577 60.7766 74.6764 62.8349 74.2627L62.5858 73.0194ZM56.2746 72.975C53.938 72.563 51.9614 71.853 50.3304 70.8584L49.6693 71.9412C51.4608 73.0337 53.5935 73.7902 56.0534 74.2239L56.2746 72.975ZM50.3304 70.8584C48.7006 69.8645 47.5467 68.668 46.8323 67.2783L45.704 67.8586C46.5428 69.4903 47.8767 70.848 49.6693 71.9412L50.3304 70.8584ZM46.8323 67.2783C46.1224 65.8973 45.9063 64.4043 46.1949 62.7749L44.9459 62.5546C44.6115 64.4421 44.8606 66.2181 45.704 67.8586L46.8323 67.2783ZM46.1949 62.7749C46.4261 61.4699 46.9454 60.392 47.7432 59.5187L46.8068 58.6639C45.832 59.731 45.215 61.0354 44.9459 62.5546L46.1949 62.7749ZM47.7432 59.5187C48.5518 58.6336 49.6106 57.9406 50.9404 57.4501L50.5021 56.2604C49.0096 56.8109 47.7709 57.6086 46.8068 58.6639L47.7432 59.5187ZM51.1683 56.4052C50.3913 55.6338 49.8438 54.7714 49.5144 53.8158L48.3151 54.2298C48.7117 55.3804 49.3686 56.4063 50.2742 57.3054L51.1683 56.4052ZM49.5187 53.8287C49.2163 52.8863 49.155 51.8809 49.3461 50.8018L48.0971 50.5816C47.8729 51.847 47.9404 53.0624 48.3108 54.2168L49.5187 53.8287ZM49.3461 50.8018C49.6112 49.3051 50.2661 48.0895 51.308 47.1279L50.4479 46.1964C49.1904 47.3571 48.4077 48.8278 48.0971 50.5816L49.3461 50.8018ZM51.3128 47.1234C52.3689 46.1283 53.7324 45.4465 55.4323 45.0964L55.1772 43.8543C53.2836 44.2444 51.6959 45.0204 50.4431 46.2009L51.3128 47.1234ZM55.4289 45.0971C57.1615 44.7499 59.0847 44.7555 61.2067 45.1297L61.4279 43.8808C59.1798 43.4844 57.0947 43.4701 55.1805 43.8537L55.4289 45.0971ZM61.2067 45.1297C63.329 45.5039 65.1229 46.1538 66.6028 47.0661L67.2692 45.9865C65.6276 44.9746 63.6757 44.2771 61.4279 43.8808L61.2067 45.1297ZM66.6057 47.0679C68.1095 47.9837 69.1674 49.0927 69.8164 50.3861L70.9503 49.8168C70.1776 48.2769 68.9373 47.0024 67.2663 45.9847L66.6057 47.0679ZM69.8194 50.392C70.4678 51.6516 70.6655 53.0175 70.4004 54.5142L71.6494 54.7345C71.9601 52.9807 71.73 51.3314 70.9474 49.811L69.8194 50.392ZM70.4004 54.5142C70.2102 55.5879 69.7972 56.5053 69.167 57.281L70.1514 58.0801C70.9269 57.1255 71.4243 56.0054 71.6494 54.7345L70.4004 54.5142ZM69.1585 57.2917C68.5494 58.0753 67.7559 58.6974 66.7636 59.1551L67.2944 60.3065C68.4567 59.7704 69.4166 59.0256 70.1599 58.0694L69.1585 57.2917ZM60.444 49.4359C59.3411 49.2414 58.3323 49.3737 57.4672 49.8933L58.1199 50.9802C58.6694 50.6502 59.3538 50.5315 60.2228 50.6848L60.444 49.4359ZM57.4811 49.8852C56.5846 50.3932 56.0593 51.2397 55.8675 52.3226L57.1165 52.5429C57.2551 51.7607 57.5975 51.2766 58.1061 50.9883L57.4811 49.8852ZM55.8675 52.3226C55.6808 53.3766 55.8699 54.3354 56.4872 55.1339L57.4911 54.3579C57.1246 53.8839 56.9823 53.3006 57.1165 52.5429L55.8675 52.3226ZM56.5061 55.1572C57.1485 55.9114 58.065 56.3626 59.1822 56.5596L59.4034 55.3107C58.4954 55.1506 57.8761 54.8089 57.4721 54.3346L56.5061 55.1572ZM59.1822 56.5596C60.2993 56.7566 61.3153 56.6462 62.1779 56.1573L61.553 55.0541C61.0105 55.3616 60.3114 55.4708 59.4034 55.3107L59.1822 56.5596ZM62.1918 56.1492C63.0757 55.6183 63.6032 54.7831 63.7915 53.7198L62.5425 53.4996C62.4099 54.2481 62.0697 54.7436 61.5391 55.0622L62.1918 56.1492ZM63.7915 53.7198C63.9834 52.637 63.7806 51.6621 63.113 50.8782L62.1469 51.7008C62.5257 52.1455 62.681 52.7175 62.5425 53.4996L63.7915 53.7198ZM63.1232 50.8906C62.4866 50.1036 61.5687 49.6342 60.444 49.4359L60.2228 50.6848C61.1232 50.8435 61.7364 51.1936 62.1367 51.6885L63.1232 50.8906ZM57.0373 68.6688C58.4137 68.9115 59.6404 68.787 60.6594 68.2133L60.0375 67.1084C59.3472 67.4971 58.4402 67.6283 57.2585 67.4199L57.0373 68.6688ZM60.6614 68.2121C61.7232 67.6091 62.3658 66.6561 62.5852 65.4176L61.3361 65.1974C61.1779 66.0904 60.7457 66.7062 60.0355 67.1096L60.6614 68.2121ZM62.5852 65.4176C62.8046 64.1789 62.5262 63.0713 61.7222 62.1645L60.7727 63.0062C61.2971 63.5975 61.4942 64.3046 61.3361 65.1974L62.5852 65.4176ZM61.7379 62.1829C60.9831 61.2634 59.8726 60.7098 58.4902 60.4661L58.269 61.715C59.4448 61.9223 60.2461 62.3653 60.757 62.9878L61.7379 62.1829ZM58.4902 60.4661C57.1067 60.2221 55.8654 60.3615 54.8191 60.9557L55.445 62.0583C56.1707 61.6462 57.0945 61.5079 58.269 61.715L58.4902 60.4661ZM54.8211 60.9546C53.7825 61.5394 53.1603 62.4868 52.9424 63.7173L54.1914 63.9376C54.351 63.0367 54.7723 62.4371 55.443 62.0594L54.8211 60.9546ZM52.9424 63.7173C52.7244 64.9479 52.9816 66.0578 53.7426 66.985L54.7235 66.1801C54.2188 65.5653 54.0319 64.8385 54.1914 63.9376L52.9424 63.7173ZM53.7583 67.0033C54.5424 67.8876 55.6596 68.4259 57.0373 68.6688L57.2585 67.4199C56.0782 67.2118 55.2521 66.7756 54.7078 66.1617L53.7583 67.0033Z" fill="#202027" mask="url(#path-2-outside-1_18933_331)"/>
</svg>
