<svg width="118" height="109" viewBox="0 0 118 109" fill="none" xmlns="http://www.w3.org/2000/svg">
<rect x="0.202599" y="0.28958" width="100.967" height="100.967" rx="18.775" transform="matrix(0.984808 0.173648 -0.174411 0.984673 17.7505 -0.0307426)" fill="#D9B6FF"/>
<rect x="0.202599" y="0.28958" width="100.967" height="100.967" rx="18.775" transform="matrix(0.984808 0.173648 -0.174411 0.984673 17.7505 -0.0307426)" stroke="#202027" stroke-width="0.5"/>
<mask id="path-2-outside-1_18933_339" maskUnits="userSpaceOnUse" x="30.8206" y="39.0751" width="55.8063" height="40.3656" fill="black">
<rect fill="white" x="30.8206" y="39.0751" width="55.8063" height="40.3656"/>
<path d="M48.1415 42.182C52.1651 42.8915 55.1261 44.6362 57.0244 47.4162C58.9226 50.1962 59.4777 53.8109 58.6896 58.2603C58.1233 61.4575 57.0087 64.1046 55.3457 66.2017C53.7141 68.2769 51.6596 69.7143 49.1823 70.5138C46.7316 71.3181 44.0274 71.4595 41.0696 70.9379C39.4974 70.6607 38.0249 70.2087 36.6521 69.582C35.2745 68.9819 34.1361 68.2729 33.2367 67.4549L37.1198 62.2874C38.3089 63.4862 39.9426 64.2688 42.0211 64.6353C44.0196 64.9877 45.7284 64.7257 47.1477 63.8495C48.5983 62.9513 49.6166 61.4686 50.2026 59.4014C48.3631 60.4783 46.151 60.7889 43.5662 60.3331C41.8076 60.023 40.2591 59.3791 38.921 58.4013C37.5876 57.3969 36.5992 56.151 35.9558 54.6638C35.3438 53.1547 35.1911 51.5342 35.4979 49.8024C35.8329 47.9108 36.6075 46.3301 37.8216 45.0606C39.0671 43.769 40.5843 42.8826 42.3733 42.4013C44.1936 41.898 46.1163 41.8249 48.1415 42.182ZM46.45 54.9894C47.5958 55.1914 48.5851 55.0362 49.4178 54.5236C50.2553 53.9844 50.7684 53.1819 50.9571 52.1162C51.1412 51.0771 50.9301 50.1744 50.3239 49.4081C49.7491 48.6199 48.8621 48.12 47.663 47.9086C46.5438 47.7113 45.5679 47.8689 44.7352 48.3815C43.9291 48.8987 43.4293 49.7036 43.2358 50.7959C43.0471 51.8616 43.2425 52.7753 43.822 53.5369C44.4282 54.3032 45.3042 54.7874 46.45 54.9894ZM81.2349 70.9728L80.1236 77.2472L58.3399 73.4062L59.2177 68.4505L71.4241 60.5057C72.6066 59.7251 73.43 59.0323 73.8944 58.4273C74.3635 57.7957 74.6594 57.1335 74.7821 56.4408C74.9425 55.5349 74.7612 54.7749 74.238 54.1606C73.7147 53.5463 72.8669 53.1358 71.6945 52.929C70.6552 52.7458 69.6535 52.8164 68.6892 53.141C67.7563 53.4435 66.9322 53.9851 66.2168 54.7657L60.9217 50.4525C62.3351 48.8335 64.1198 47.6782 66.2757 46.9868C68.4316 46.2954 70.8552 46.187 73.5465 46.6616C75.6783 47.0375 77.4955 47.7151 78.9983 48.6944C80.5276 49.6784 81.6297 50.9031 82.3045 52.3683C83.0106 53.8116 83.2126 55.3859 82.9106 57.091C82.6416 58.6097 82.0537 59.9897 81.1468 61.231C80.2714 62.4504 78.75 63.7482 76.5827 65.1245L70.443 69.0699L81.2349 70.9728Z"/>
</mask>
<path d="M48.1415 42.182C52.1651 42.8915 55.1261 44.6362 57.0244 47.4162C58.9226 50.1962 59.4777 53.8109 58.6896 58.2603C58.1233 61.4575 57.0087 64.1046 55.3457 66.2017C53.7141 68.2769 51.6596 69.7143 49.1823 70.5138C46.7316 71.3181 44.0274 71.4595 41.0696 70.9379C39.4974 70.6607 38.0249 70.2087 36.6521 69.582C35.2745 68.9819 34.1361 68.2729 33.2367 67.4549L37.1198 62.2874C38.3089 63.4862 39.9426 64.2688 42.0211 64.6353C44.0196 64.9877 45.7284 64.7257 47.1477 63.8495C48.5983 62.9513 49.6166 61.4686 50.2026 59.4014C48.3631 60.4783 46.151 60.7889 43.5662 60.3331C41.8076 60.023 40.2591 59.3791 38.921 58.4013C37.5876 57.3969 36.5992 56.151 35.9558 54.6638C35.3438 53.1547 35.1911 51.5342 35.4979 49.8024C35.8329 47.9108 36.6075 46.3301 37.8216 45.0606C39.0671 43.769 40.5843 42.8826 42.3733 42.4013C44.1936 41.898 46.1163 41.8249 48.1415 42.182ZM46.45 54.9894C47.5958 55.1914 48.5851 55.0362 49.4178 54.5236C50.2553 53.9844 50.7684 53.1819 50.9571 52.1162C51.1412 51.0771 50.9301 50.1744 50.3239 49.4081C49.7491 48.6199 48.8621 48.12 47.663 47.9086C46.5438 47.7113 45.5679 47.8689 44.7352 48.3815C43.9291 48.8987 43.4293 49.7036 43.2358 50.7959C43.0471 51.8616 43.2425 52.7753 43.822 53.5369C44.4282 54.3032 45.3042 54.7874 46.45 54.9894ZM81.2349 70.9728L80.1236 77.2472L58.3399 73.4062L59.2177 68.4505L71.4241 60.5057C72.6066 59.7251 73.43 59.0323 73.8944 58.4273C74.3635 57.7957 74.6594 57.1335 74.7821 56.4408C74.9425 55.5349 74.7612 54.7749 74.238 54.1606C73.7147 53.5463 72.8669 53.1358 71.6945 52.929C70.6552 52.7458 69.6535 52.8164 68.6892 53.141C67.7563 53.4435 66.9322 53.9851 66.2168 54.7657L60.9217 50.4525C62.3351 48.8335 64.1198 47.6782 66.2757 46.9868C68.4316 46.2954 70.8552 46.187 73.5465 46.6616C75.6783 47.0375 77.4955 47.7151 78.9983 48.6944C80.5276 49.6784 81.6297 50.9031 82.3045 52.3683C83.0106 53.8116 83.2126 55.3859 82.9106 57.091C82.6416 58.6097 82.0537 59.9897 81.1468 61.231C80.2714 62.4504 78.75 63.7482 76.5827 65.1245L70.443 69.0699L81.2349 70.9728Z" fill="white"/>
<path d="M57.0244 47.4162L56.5004 47.774V47.774L57.0244 47.4162ZM55.3457 66.2017L54.8488 65.808L54.8472 65.8101L55.3457 66.2017ZM49.1823 70.5138L48.9878 69.9104L48.9849 69.9114L49.1823 70.5138ZM36.6521 69.582L36.9159 69.0051L36.9058 69.0007L36.6521 69.582ZM33.2367 67.4549L32.7297 67.0743L32.3829 67.5359L32.8097 67.9241L33.2367 67.4549ZM37.1198 62.2874L37.5703 61.8407L37.0537 61.32L36.6128 61.9068L37.1198 62.2874ZM47.1477 63.8495L47.4807 64.3889L47.4814 64.3885L47.1477 63.8495ZM50.2026 59.4014L50.8128 59.5739L51.2425 58.0581L49.8824 58.8543L50.2026 59.4014ZM38.921 58.4013L38.539 58.9079L38.5465 58.9133L38.921 58.4013ZM35.9558 54.6638L35.368 54.9025L35.3707 54.9092L35.3736 54.9159L35.9558 54.6638ZM37.8216 45.0606L37.3652 44.6206L37.3633 44.6226L37.8216 45.0606ZM42.3733 42.4013L42.5377 43.0136L42.5419 43.0124L42.3733 42.4013ZM49.4178 54.5236L49.7501 55.0636L49.761 55.0566L49.4178 54.5236ZM50.3239 49.4081L49.8113 49.7819L49.8186 49.7919L49.8263 49.8017L50.3239 49.4081ZM44.7352 48.3815L44.4029 47.8415L44.3928 47.8479L44.7352 48.3815ZM43.822 53.5369L43.317 53.9211L43.3244 53.9305L43.822 53.5369ZM48.0309 42.8064C51.9248 43.493 54.7183 45.1641 56.5004 47.774L57.5483 47.0585C55.5339 44.1083 52.4055 42.2899 48.2521 41.5575L48.0309 42.8064ZM56.5004 47.774C58.277 50.3757 58.8344 53.8067 58.0651 58.1502L59.3141 58.3704C60.121 53.8152 59.5683 50.0167 57.5483 47.0585L56.5004 47.774ZM58.0651 58.1502C57.5132 61.2657 56.4338 63.8093 54.8488 65.808L55.8426 66.5954C57.5836 64.3999 58.7334 61.6493 59.3141 58.3704L58.0651 58.1502ZM54.8472 65.8101C53.2924 67.7875 51.3432 69.1502 48.9878 69.9104L49.3768 71.1172C51.976 70.2783 54.1358 68.7663 55.8442 66.5934L54.8472 65.8101ZM48.9849 69.9114C46.6487 70.6781 44.0521 70.8199 41.1802 70.3135L40.959 71.5624C44.0026 72.099 46.8145 71.9581 49.3797 71.1163L48.9849 69.9114ZM41.1802 70.3135C39.6579 70.045 38.2372 69.6084 36.9159 69.0052L36.3883 70.1588C37.8127 70.8091 39.337 71.2764 40.959 71.5624L41.1802 70.3135ZM36.9058 69.0007C35.5773 68.422 34.5014 67.7476 33.6638 66.9858L32.8097 67.9241C33.7707 68.7982 34.9717 69.5419 36.3984 70.1633L36.9058 69.0007ZM33.7437 67.8355L37.6268 62.668L36.6128 61.9068L32.7297 67.0743L33.7437 67.8355ZM36.6693 62.734C37.9713 64.0467 39.7355 64.8762 41.9105 65.2597L42.1317 64.0108C40.1498 63.6614 38.6464 62.9256 37.5703 61.8407L36.6693 62.734ZM41.9105 65.2597C44.0274 65.633 45.9017 65.3638 47.4807 64.3889L46.8147 63.3101C45.5552 64.0877 44.0118 64.3423 42.1317 64.0108L41.9105 65.2597ZM47.4814 64.3885C49.0991 63.3869 50.1953 61.7524 50.8128 59.5739L49.5924 59.229C49.0379 61.1849 48.0975 62.5158 46.814 63.3105L47.4814 64.3885ZM49.8824 58.8543C48.2009 59.8387 46.149 60.1446 43.6769 59.7087L43.4556 60.9576C46.153 61.4332 48.5252 61.1179 50.5228 59.9485L49.8824 58.8543ZM43.6769 59.7087C42.0061 59.4141 40.5495 58.8056 39.2955 57.8893L38.5465 58.9133C39.9688 59.9526 41.6091 60.632 43.4556 60.9576L43.6769 59.7087ZM39.3029 57.8948C38.0544 56.9543 37.1364 55.7951 36.5379 54.4118L35.3736 54.9159C36.0619 56.507 37.1207 57.8394 38.5391 58.9078L39.3029 57.8948ZM36.5436 54.4252C35.9799 53.0353 35.8347 51.5367 36.1224 49.9125L34.8733 49.6923C34.5475 51.5318 34.7076 53.274 35.368 54.9025L36.5436 54.4252ZM36.1224 49.9125C36.4378 48.1321 37.1605 46.6692 38.2799 45.4986L37.3633 44.6226C36.0545 45.9911 35.2281 47.6894 34.8733 49.6923L36.1224 49.9125ZM38.2781 45.5005C39.441 44.2946 40.8561 43.466 42.5377 43.0136L42.2089 41.789C40.3125 42.2992 38.6933 43.2435 37.3652 44.6206L38.2781 45.5005ZM42.5419 43.0124C44.2634 42.5365 46.0902 42.4642 48.0309 42.8064L48.2521 41.5575C46.1424 41.1855 44.1238 41.2595 42.2046 41.7901L42.5419 43.0124ZM46.3394 55.6138C47.6075 55.8374 48.7607 55.6725 49.7501 55.0635L49.0856 53.9837C48.4095 54.3999 47.5842 54.5454 46.5606 54.3649L46.3394 55.6138ZM49.761 55.0566C50.7608 54.4128 51.3651 53.4491 51.5817 52.2263L50.3326 52.0061C50.1716 52.9147 49.7497 53.5559 49.0747 53.9906L49.761 55.0566ZM51.5817 52.2263C51.7945 51.0248 51.5497 49.9351 50.8215 49.0146L49.8263 49.8017C50.3105 50.4137 50.4879 51.1294 50.3326 52.0061L51.5817 52.2263ZM50.8365 49.0343C50.1426 48.0829 49.0921 47.5167 47.7736 47.2842L47.5524 48.5331C48.6321 48.7234 49.3555 49.1569 49.8113 49.7819L50.8365 49.0343ZM47.7736 47.2842C46.5279 47.0645 45.3892 47.2345 44.4029 47.8416L45.0674 48.9213C45.7466 48.5033 46.5598 48.358 47.5524 48.5331L47.7736 47.2842ZM44.3928 47.8479C43.4137 48.4763 42.8303 49.4495 42.6113 50.6858L43.8604 50.906C44.0283 49.9576 44.4445 49.3212 45.0775 48.915L44.3928 47.8479ZM42.6113 50.6858C42.3961 51.9007 42.6159 52.9996 43.3171 53.921L44.3269 53.1527C43.869 52.551 43.698 51.8226 43.8604 50.906L42.6113 50.6858ZM43.3244 53.9305C44.0447 54.8409 45.0713 55.3902 46.3394 55.6138L46.5606 54.3649C45.5371 54.1845 44.8118 53.7655 44.3196 53.1433L43.3244 53.9305ZM81.2349 70.9728L81.8595 71.0829L81.9701 70.4584L81.3455 70.3483L81.2349 70.9728ZM80.1236 77.2472L80.013 77.8717L80.6375 77.9818L80.7481 77.3573L80.1236 77.2472ZM58.3399 73.4062L57.7154 73.296L57.6048 73.9205L58.2293 74.0306L58.3399 73.4062ZM59.2177 68.4505L58.8719 67.9192L58.6411 68.0694L58.5931 68.3404L59.2177 68.4505ZM71.4241 60.5057L71.7699 61.0371L71.7733 61.0348L71.4241 60.5057ZM73.8944 58.4273L74.3975 58.8132L74.4035 58.8051L73.8944 58.4273ZM68.6892 53.141L68.8845 53.7441L68.8912 53.7419L68.6892 53.141ZM66.2168 54.7657L65.816 55.2574L66.2799 55.6352L66.6844 55.1938L66.2168 54.7657ZM60.9217 50.4525L60.444 50.0358L60.0125 50.5301L60.5209 50.9442L60.9217 50.4525ZM66.2757 46.9868L66.469 47.5906V47.5906L66.2757 46.9868ZM78.9982 48.6944L78.6516 49.2257L78.6547 49.2277L78.9982 48.6944ZM82.3045 52.3683L81.7283 52.6338L81.7314 52.6406L81.7347 52.6473L82.3045 52.3683ZM81.1468 61.231L80.6347 60.8573L80.6317 60.8615L81.1468 61.231ZM76.5827 65.1245L76.2429 64.5893L76.24 64.5912L76.5827 65.1245ZM70.443 69.0699L70.1004 68.5365L68.7366 69.4129L70.3324 69.6943L70.443 69.0699ZM80.6104 70.8626L79.499 77.1371L80.7481 77.3573L81.8595 71.0829L80.6104 70.8626ZM80.2342 76.6228L58.4505 72.7817L58.2293 74.0306L80.013 77.8717L80.2342 76.6228ZM58.9644 73.5163L59.8422 68.5607L58.5931 68.3404L57.7154 73.296L58.9644 73.5163ZM59.5634 68.9819L71.7699 61.0371L71.0783 59.9744L58.8719 67.9192L59.5634 68.9819ZM71.7733 61.0348C72.9732 60.2427 73.8678 59.5032 74.3975 58.8131L73.3913 58.0415C72.9922 58.5614 72.2399 59.2076 71.0749 59.9767L71.7733 61.0348ZM74.4035 58.8051C74.9243 58.1038 75.2648 57.3515 75.4066 56.5509L74.1576 56.3307C74.054 56.9155 73.8026 57.4876 73.3853 58.0496L74.4035 58.8051ZM75.4066 56.5509C75.5949 55.488 75.3848 54.5287 74.721 53.7493L73.7549 54.5719C74.1375 55.0211 74.2902 55.5819 74.1576 56.3307L75.4066 56.5509ZM74.721 53.7493C74.066 52.9803 73.0559 52.5252 71.8051 52.3046L71.5839 53.5535C72.6779 53.7464 73.3635 54.1123 73.7549 54.5719L74.721 53.7493ZM71.8051 52.3046C70.6654 52.1037 69.556 52.1804 68.4872 52.54L68.8912 53.7419C69.751 53.4525 70.6451 53.388 71.5839 53.5535L71.8051 52.3046ZM68.4939 52.5378C67.4484 52.8769 66.5327 53.4827 65.7493 54.3375L66.6844 55.1938C67.3316 54.4875 68.0641 54.0102 68.8845 53.7441L68.4939 52.5378ZM66.6177 54.274L61.3225 49.9609L60.5209 50.9442L65.816 55.2574L66.6177 54.274ZM61.3994 50.8693C62.7327 49.342 64.417 48.2487 66.469 47.5906L66.0824 46.3831C63.8225 47.1078 61.9375 48.3249 60.444 50.0358L61.3994 50.8693ZM66.469 47.5906C68.5084 46.9366 70.8252 46.8257 73.4359 47.286L73.6571 46.0371C70.8852 45.5484 68.3548 45.6543 66.0824 46.3831L66.469 47.5906ZM73.4359 47.286C75.5005 47.6501 77.2336 48.3016 78.6516 49.2257L79.3449 48.1631C77.7574 47.1286 75.856 46.4249 73.6571 46.0371L73.4359 47.286ZM78.6547 49.2277C80.096 50.155 81.1103 51.2917 81.7283 52.6338L82.8806 52.1028C82.1492 50.5144 80.9593 49.2019 79.3418 48.1611L78.6547 49.2277ZM81.7347 52.6473C82.3771 53.9605 82.5666 55.3972 82.2861 56.9809L83.5351 57.2012C83.8587 55.3746 83.644 53.6628 82.8743 52.0894L81.7347 52.6473ZM82.2861 56.9809C82.0339 58.4046 81.4843 59.6944 80.6348 60.8573L81.6589 61.6048C82.6231 60.285 83.2493 58.8147 83.5351 57.2012L82.2861 56.9809ZM80.6317 60.8615C79.8257 61.9842 78.3834 63.2301 76.2429 64.5893L76.9225 65.6597C79.1166 64.2664 80.7171 62.9166 81.662 61.6005L80.6317 60.8615ZM76.24 64.5912L70.1004 68.5365L70.7857 69.6032L76.9254 65.6578L76.24 64.5912ZM70.3324 69.6943L81.1243 71.5972L81.3455 70.3483L70.5536 68.4454L70.3324 69.6943Z" fill="#202027" mask="url(#path-2-outside-1_18933_339)"/>
</svg>
