<svg width="118" height="89" viewBox="0 0 118 89" fill="none" xmlns="http://www.w3.org/2000/svg">
<rect x="0.202599" y="0.28958" width="100.967" height="100.967" rx="18.775" transform="matrix(0.984808 0.173648 -0.174411 0.984673 17.7505 -28.6429)" fill="#D9B6FF"/>
<rect x="0.202599" y="0.28958" width="100.967" height="100.967" rx="18.775" transform="matrix(0.984808 0.173648 -0.174411 0.984673 17.7505 -28.6429)" stroke="#202027" stroke-width="0.5"/>
<mask id="path-2-outside-1_18933_317" maskUnits="userSpaceOnUse" x="43.6233" y="12.7203" width="31.1861" height="36.0244" fill="black">
<rect fill="white" x="43.6233" y="12.7203" width="31.1861" height="36.0244"/>
<path d="M62.1291 27.0811C63.8878 27.3912 65.4338 28.0485 66.7672 29.0529C68.1054 30.0307 69.0805 31.2742 69.6925 32.7833C70.3359 34.2705 70.5042 35.88 70.1974 37.6118C69.8624 39.5035 69.0721 41.0951 67.8266 42.3866C66.6125 43.6562 65.0953 44.5426 63.275 45.0459C61.486 45.5272 59.5657 45.587 57.5139 45.2252C53.5169 44.5204 50.5692 42.7781 48.671 39.9981C46.7727 37.218 46.2176 33.6033 47.0057 29.154C47.572 25.9568 48.671 23.3206 50.3026 21.2454C51.9655 19.1483 54.0224 17.6976 56.473 16.8934C58.9237 16.0891 61.628 15.9478 64.5858 16.4693C66.1846 16.7512 67.6727 17.1922 69.0503 17.7923C70.4279 18.3924 71.564 19.1147 72.4586 19.9593L68.5755 25.1269C67.3865 23.9281 65.7527 23.1455 63.6742 22.779C61.6491 22.4219 59.9112 22.6924 58.4606 23.5906C57.01 24.4888 56.005 25.9738 55.4457 28.0457C57.2899 26.9422 59.5177 26.6207 62.1291 27.0811ZM58.0323 39.5056C59.1515 39.703 60.1141 39.543 60.9202 39.0257C61.7529 38.5132 62.266 37.7107 62.4595 36.6183C62.6483 35.5526 62.4395 34.6366 61.8333 33.8703C61.2538 33.1087 60.3911 32.6269 59.2453 32.4249C58.0995 32.2228 57.1079 32.3914 56.2704 32.9306C55.4377 33.4432 54.927 34.2324 54.7382 35.2981C54.5541 36.3372 54.7495 37.2508 55.3244 38.0391C55.9306 38.8053 56.8332 39.2942 58.0323 39.5056Z"/>
</mask>
<path d="M62.1291 27.0811C63.8878 27.3912 65.4338 28.0485 66.7672 29.0529C68.1054 30.0307 69.0805 31.2742 69.6925 32.7833C70.3359 34.2705 70.5042 35.88 70.1974 37.6118C69.8624 39.5035 69.0721 41.0951 67.8266 42.3866C66.6125 43.6562 65.0953 44.5426 63.275 45.0459C61.486 45.5272 59.5657 45.587 57.5139 45.2252C53.5169 44.5204 50.5692 42.7781 48.671 39.9981C46.7727 37.218 46.2176 33.6033 47.0057 29.154C47.572 25.9568 48.671 23.3206 50.3026 21.2454C51.9655 19.1483 54.0224 17.6976 56.473 16.8934C58.9237 16.0891 61.628 15.9478 64.5858 16.4693C66.1846 16.7512 67.6727 17.1922 69.0503 17.7923C70.4279 18.3924 71.564 19.1147 72.4586 19.9593L68.5755 25.1269C67.3865 23.9281 65.7527 23.1455 63.6742 22.779C61.6491 22.4219 59.9112 22.6924 58.4606 23.5906C57.01 24.4888 56.005 25.9738 55.4457 28.0457C57.2899 26.9422 59.5177 26.6207 62.1291 27.0811ZM58.0323 39.5056C59.1515 39.703 60.1141 39.543 60.9202 39.0257C61.7529 38.5132 62.266 37.7107 62.4595 36.6183C62.6483 35.5526 62.4395 34.6366 61.8333 33.8703C61.2538 33.1087 60.3911 32.6269 59.2453 32.4249C58.0995 32.2228 57.1079 32.3914 56.2704 32.9306C55.4377 33.4432 54.927 34.2324 54.7382 35.2981C54.5541 36.3372 54.7495 37.2508 55.3244 38.0391C55.9306 38.8053 56.8332 39.2942 58.0323 39.5056Z" fill="white"/>
<path d="M66.7672 29.0529L66.3853 29.5595L66.3927 29.565L66.7672 29.0529ZM69.6925 32.7833L69.1047 33.0219L69.1074 33.0287L69.1103 33.0354L69.6925 32.7833ZM67.8266 42.3866L67.3702 41.9467L67.3683 41.9486L67.8266 42.3866ZM63.275 45.0459L63.4394 45.6582L63.4436 45.657L63.275 45.0459ZM48.671 39.9981L49.1949 39.6403V39.6403L48.671 39.9981ZM50.3026 21.2454L49.8057 20.8518L49.804 20.8538L50.3026 21.2454ZM69.0503 17.7923L69.304 17.211V17.211L69.0503 17.7923ZM72.4586 19.9593L72.9656 20.34L73.306 19.8869L72.8942 19.4982L72.4586 19.9593ZM68.5755 25.1269L68.125 25.5735L68.6416 26.0943L69.0825 25.5075L68.5755 25.1269ZM58.4606 23.5906L58.1269 23.0516V23.0516L58.4606 23.5906ZM55.4457 28.0457L54.8334 27.8809L54.4245 29.3956L55.7711 28.5898L55.4457 28.0457ZM60.9202 39.0257L60.5879 38.4858L60.5778 38.4922L60.9202 39.0257ZM61.8333 33.8703L61.3284 34.2545L61.3358 34.2639L61.8333 33.8703ZM56.2704 32.9306L56.6027 33.4706L56.6136 33.4636L56.2704 32.9306ZM55.3244 38.0391L54.8118 38.4129L54.8191 38.4229L54.8268 38.4326L55.3244 38.0391ZM62.0185 27.7056C63.6857 27.9996 65.1372 28.6193 66.3853 29.5595L67.1491 28.5464C65.7304 27.4777 64.0898 26.7829 62.2397 26.4567L62.0185 27.7056ZM66.3927 29.565C67.6375 30.4745 68.5378 31.624 69.1047 33.0219L70.2803 32.5447C69.6232 30.9244 68.5733 29.5869 67.1417 28.5409L66.3927 29.565ZM69.1103 33.0354C69.7002 34.3989 69.8599 35.8814 69.5729 37.5017L70.822 37.722C71.1485 35.8787 70.9715 34.1421 70.2747 32.5313L69.1103 33.0354ZM69.5729 37.5017C69.2582 39.2785 68.5218 40.7525 67.3702 41.9467L68.2831 42.8265C69.6225 41.4376 70.4666 39.7285 70.822 37.722L69.5729 37.5017ZM67.3683 41.9486C66.2393 43.1292 64.8249 43.9596 63.1063 44.4348L63.4436 45.657C65.3657 45.1256 66.9857 44.1832 68.2849 42.8246L67.3683 41.9486ZM63.1106 44.4336C61.4219 44.888 59.5963 44.9485 57.6245 44.6008L57.4033 45.8497C59.535 46.2256 61.5501 46.1665 63.4394 45.6582L63.1106 44.4336ZM57.6245 44.6008C53.7586 43.9191 50.9776 42.2511 49.1949 39.6403L48.147 40.3558C50.1608 43.305 53.2752 45.1218 57.4033 45.8497L57.6245 44.6008ZM49.1949 39.6403C47.4184 37.0386 46.8609 33.6076 47.6303 29.2641L46.3812 29.0438C45.5743 33.5991 46.1271 37.3975 48.147 40.3558L49.1949 39.6403ZM47.6303 29.2641C48.1825 26.1463 49.2473 23.6134 50.8011 21.6371L49.804 20.8538C48.0947 23.0279 46.9616 25.7673 46.3812 29.0438L47.6303 29.2641ZM50.7995 21.6391C52.3883 19.6355 54.3425 18.2598 56.6705 17.4958L56.2756 16.2909C53.7022 17.1355 51.5428 18.6611 49.8057 20.8518L50.7995 21.6391ZM56.6705 17.4958C59.0066 16.7292 61.6032 16.5873 64.4751 17.0937L64.6964 15.8449C61.6527 15.3082 58.8409 15.4491 56.2756 16.2909L56.6705 17.4958ZM64.4751 17.0937C66.0286 17.3677 67.4684 17.795 68.7966 18.3736L69.304 17.211C67.8771 16.5894 66.3405 16.1348 64.6964 15.8449L64.4751 17.0937ZM68.7966 18.3736C70.1214 18.9507 71.1919 19.6359 72.0229 20.4205L72.8942 19.4982C71.9361 18.5936 70.7344 17.834 69.304 17.211L68.7966 18.3736ZM71.9516 19.5787L68.0685 24.7463L69.0825 25.5075L72.9656 20.34L71.9516 19.5787ZM69.0261 24.6802C67.724 23.3676 65.9598 22.538 63.7848 22.1545L63.5636 23.4034C65.5455 23.7529 67.0489 24.4886 68.125 25.5735L69.0261 24.6802ZM63.7848 22.1545C61.6394 21.7762 59.7363 22.0552 58.1269 23.0516L58.7943 24.1296C60.0862 23.3297 61.6588 23.0676 63.5636 23.4034L63.7848 22.1545ZM58.1269 23.0516C56.5064 24.055 55.4234 25.6954 54.8334 27.8809L56.058 28.2106C56.5867 26.2523 57.5137 24.9225 58.7943 24.1296L58.1269 23.0516ZM55.7711 28.5898C57.4557 27.5818 59.5208 27.2652 62.0185 27.7056L62.2397 26.4567C59.5146 25.9762 57.1241 26.3027 55.1203 27.5017L55.7711 28.5898ZM57.9217 40.1301C59.1667 40.3496 60.2978 40.1784 61.2625 39.5593L60.5778 38.4922C59.9304 38.9077 59.1362 39.0563 58.1429 38.8812L57.9217 40.1301ZM61.2524 39.5656C62.2612 38.9447 62.8637 37.9725 63.084 36.7285L61.835 36.5082C61.6683 37.4489 61.2446 38.0816 60.5879 38.4859L61.2524 39.5656ZM63.084 36.7285C63.3006 35.5058 63.0623 34.4012 62.3309 33.4768L61.3358 34.2639C61.8168 34.872 61.9959 35.5995 61.835 36.5082L63.084 36.7285ZM62.3382 33.4862C61.6423 32.5717 60.6231 32.0239 59.3559 31.8004L59.1347 33.0493C60.1591 33.2299 60.8653 33.6458 61.3285 34.2545L62.3382 33.4862ZM59.3559 31.8004C58.081 31.5756 56.9214 31.7575 55.9273 32.3976L56.6136 33.4636C57.2943 33.0253 58.1179 32.87 59.1347 33.0493L59.3559 31.8004ZM55.9382 32.3908C54.9335 33.0091 54.3302 33.9653 54.1137 35.188L55.3627 35.4082C55.5237 34.4995 55.9419 33.8773 56.6027 33.4705L55.9382 32.3908ZM54.1137 35.188C53.9022 36.3816 54.1265 37.4732 54.8118 38.4129L55.837 37.6653C55.3726 37.0284 55.206 36.2928 55.3627 35.4082L54.1137 35.188ZM54.8268 38.4326C55.5514 39.3485 56.6087 39.8986 57.9217 40.1301L58.1429 38.8812C57.0577 38.6899 56.3098 38.2622 55.822 37.6455L54.8268 38.4326Z" fill="#202027" mask="url(#path-2-outside-1_18933_317)"/>
</svg>
